<svg xmlns="http://www.w3.org/2000/svg" width="512" height="512" fill="none" viewBox="0 0 512 512"><path fill="#EEE" d="M477.752 384C499.534 346.346 512 302.629 512 256s-12.466-90.346-34.248-128H34.248C12.467 165.654 0 209.371 0 256s12.467 90.346 34.248 128z"/><path fill="#496E2D" d="M255.911 512c-101.182-.035-188.642-58.77-230.176-144h460.529c-41.533 85.23-128.993 143.965-230.175 144h-.178"/><path fill="#FF9811" d="M256 0C154.78 0 67.28 58.745 25.735 144h460.529C444.719 58.745 357.22 0 256 0"/><path fill="#026" fill-rule="evenodd" d="m250.517 283.907 4.465 44.512a72.5 72.5 0 0 1-10.003-.801 8 8 0 0 0-15.435-4.126 72 72 0 0 1-9.069-4.307l26.131-36.327.07-4.223a23.8 23.8 0 0 0 5.895 1.575zM259 280.21l2.053 3.696-4.465 44.513a72.5 72.5 0 0 0 10.004-.801 8 8 0 0 1 5.758-9.374 8 8 0 0 1 9.677 5.248 72 72 0 0 0 9.068-4.306l-26.13-36.327-.07-4.224c-1.86.763-3.836 1.3-5.895 1.575m11.461-4.795 3.628 2.176 18.394 40.792a72 72 0 0 0 8.254-5.712 8 8 0 0 1 11.296-11.297 72 72 0 0 0 5.712-8.253l-40.793-18.394-2.175-3.628a24 24 0 0 1-4.316 4.316m7.535-9.882 4.225.07 36.326 26.13a72 72 0 0 0 4.307-9.067 8 8 0 0 1 4.126-15.436c.492-3.268.764-6.608.801-10.004l-44.514 4.465-3.695-2.053a23.9 23.9 0 0 1-1.576 5.895m1.576-12.324 3.698-2.054 44.511 4.465a72.5 72.5 0 0 0-.801-10.003 8 8 0 0 1-9.375-5.758 8 8 0 0 1 5.248-9.677 71.6 71.6 0 0 0-4.306-9.069l-36.328 26.131-4.223.07a24 24 0 0 1 1.576 5.895m-4.795-11.461 2.176-3.63 40.791-18.393a72 72 0 0 0-5.711-8.252 8.002 8.002 0 0 1-11.297-11.297 72 72 0 0 0-8.254-5.711l-18.394 40.792-3.627 2.175a24.2 24.2 0 0 1 4.316 4.316m-9.882-7.535.07-4.226 26.129-36.326a72 72 0 0 0-9.067-4.306 8 8 0 0 1-9.677 5.249 8 8 0 0 1-5.758-9.375 73 73 0 0 0-10.004-.801l4.465 44.513-2.054 3.696c2.06.276 4.036.813 5.896 1.576m-12.324-1.576-2.054-3.697 4.465-44.512c-3.396.037-6.735.31-10.003.801a8 8 0 0 1-15.435 4.126 72 72 0 0 0-9.068 4.307l26.13 36.326.07 4.225a23.9 23.9 0 0 1 5.895-1.576m-11.461 4.795-3.629-2.176-18.394-40.791a72 72 0 0 0-8.252 5.711 8 8 0 0 1-11.297 11.297 72 72 0 0 0-5.711 8.253l40.79 18.393 2.177 3.629a24 24 0 0 1 4.316-4.316m-7.536 9.882-4.223-.07-36.327-26.13a72 72 0 0 0-4.307 9.068 8.001 8.001 0 0 1-4.126 15.435 72.5 72.5 0 0 0-.801 10.003l44.511-4.465 3.698 2.054a23.8 23.8 0 0 1 1.575-5.895m-1.575 12.324-3.696 2.053-44.513-4.465c.037 3.396.309 6.736.801 10.004a8 8 0 0 1 4.126 15.435 72 72 0 0 0 4.306 9.068l36.325-26.13 4.226-.07a23.8 23.8 0 0 1-1.575-5.895m4.794 11.461-2.174 3.627-40.793 18.395a72 72 0 0 0 5.712 8.254 8 8 0 0 1 11.297 11.297 72 72 0 0 0 8.252 5.71l18.393-40.79 3.629-2.177a24 24 0 0 1-4.316-4.316m18.992 73.325c48.601 0 88-39.399 88-88s-39.399-88-88-88-88 39.399-88 88 39.399 88 88 88" clip-rule="evenodd"/></svg>