<svg xmlns="http://www.w3.org/2000/svg" width="22" height="22" fill="none" viewBox="0 0 22 22"><g clip-path="url(#a)"><path fill="#F0F0F0" d="M11 22c6.075 0 11-4.925 11-11S17.075 0 11 0 0 4.925 0 11s4.925 11 11 11"/><path fill="#D80027" d="M10.522 11H22c0-.993-.133-1.955-.38-2.87H10.522zM10.522 5.26h9.863a11 11 0 0 0-2.538-2.869h-7.326zM11 22c2.589 0 4.968-.895 6.847-2.392H4.152A10.95 10.95 0 0 0 11 22M1.614 16.739h18.772c.54-.882.96-1.847 1.235-2.87H.379a11 11 0 0 0 1.235 2.87"/><path fill="#0052B4" d="M5.095 1.718h1.003l-.933.677.357 1.096-.933-.677-.932.677.307-.947a11 11 0 0 0-2.133 2.378h.321l-.593.431q-.14.232-.266.47l.283.873-.529-.385q-.197.419-.36.854L1 8.127h1.152l-.932.677.356 1.096-.932-.677-.559.405Q.001 10.303 0 11h11V0C8.827 0 6.801.63 5.095 1.718M5.522 9.9l-.933-.677-.932.677.356-1.096-.932-.677h1.152L4.59 7.03l.356 1.097h1.153l-.933.677zm-.357-4.3.357 1.096-.933-.678-.932.678.356-1.096-.932-.678h1.152l.356-1.096.356 1.096h1.153zm4.302 4.3-.932-.677-.933.677.357-1.096-.933-.677H8.18l.356-1.097.356 1.097h1.152l-.932.677zm-.356-4.3.356 1.096-.932-.678-.933.678L7.96 5.6l-.933-.678H8.18l.356-1.096.356 1.096h1.152zm0-3.205.356 1.096-.932-.677-.933.677.357-1.096-.933-.677H8.18L8.535.622l.356 1.096h1.152z"/></g><defs><clipPath id="a"><path fill="#fff" d="M0 0h22v22H0z"/></clipPath></defs></svg>