<svg xmlns="http://www.w3.org/2000/svg" width="22" height="22" fill="none" viewBox="0 0 22 22"><g clip-path="url(#a)"><path fill="#F0F0F0" d="M11 22c6.075 0 11-4.925 11-11S17.075 0 11 0 0 4.925 0 11s4.925 11 11 11"/><path fill="#D80027" d="M22 11a11 11 0 0 0-6.218-9.909v19.817A11 11 0 0 0 22 11M0 11a11 11 0 0 0 6.217 9.908V1.091A11 11 0 0 0 0 11M12.913 12.434l1.913-.956-.957-.478v-.957L11.957 11l.957-1.913h-.957L11 7.652l-.957 1.435h-.956L10.043 11l-1.913-.957V11l-.956.478 1.913.956-.478.957h1.913v1.435h.956V13.39h1.913z"/></g><defs><clipPath id="a"><path fill="#fff" d="M0 0h22v22H0z"/></clipPath></defs></svg>