<svg xmlns="http://www.w3.org/2000/svg" width="16" height="16" fill="none" viewBox="0 0 16 16"><g clip-path="url(#a)"><rect width="16" height="16" fill="#fff" rx="8"/><rect width="22.5" height="16.071" x="-3.25" fill="#fff" rx="2"/><mask id="b" width="24" height="17" x="-4" y="0" maskUnits="userSpaceOnUse" style="mask-type:luminance"><rect width="22.5" height="16.071" x="-3.25" fill="#fff" rx="2"/></mask><g mask="url(#b)"><path fill="#0A17A7" d="M-3.25 0h22.5v16.071h-22.5z"/><path fill="#FF2E3B" stroke="#fff" stroke-width=".667" d="M6.727.364a.67.67 0 0 1-.28.542l-3.47 2.479v.747l3.27 2.804a.51.51 0 0 1-.63.802L2 5.154h-.867l-4.205 2.628-.51.32V6.793l.14-.1 3.61-2.579v-.747L-3.467.253l-.684-.586h1.544l.086.062 3.665 2.617h.867L6.216-.282l.51-.32z"/><path fill="#fff" fill-rule="evenodd" d="M-3.25 2.679V4.82H.5V7.37c0 .368.298.667.667.667h.81a.667.667 0 0 0 .666-.667V4.821h3.619a.667.667 0 0 0 .667-.666v-.81a.667.667 0 0 0-.667-.666h-3.62V0H.5v2.679z" clip-rule="evenodd"/><path fill="#FF2E3B" fill-rule="evenodd" d="M-3.25 3.214h4.286V0h1.071v3.214h4.286v1.072H2.107V7.5H1.036V4.286H-3.25z" clip-rule="evenodd"/><path fill="#CA1931" fill-rule="evenodd" d="m12.821 13.929-.757.221.222-.757-.222-.758.757.222.758-.222-.222.758.222.757zM12.821 3.75l-.757.222.222-.758-.222-.757.757.222.758-.222-.222.757.222.758zM16.036 6.964l-.758.222.222-.757-.222-.758.758.222.757-.222-.221.758.221.757zM9.607 8.036l-.758.222.222-.758-.222-.758.758.222.758-.222-.222.758.222.758z" clip-rule="evenodd"/></g></g><defs><clipPath id="a"><rect width="16" height="16" fill="#fff" rx="8"/></clipPath></defs></svg>