<svg xmlns="http://www.w3.org/2000/svg" width="22" height="22" fill="none" viewBox="0 0 22 22"><g clip-path="url(#a)"><path fill="#FFDA44" d="M.685 14.826C2.239 19.015 6.27 22 11 22c4.73 0 8.762-2.985 10.316-7.174L11 13.87z"/><path fill="#000" d="M11 0C6.27 0 2.24 2.985.685 7.174L11 8.13l10.316-.956C19.762 2.985 15.73 0 11 0"/><path fill="#D80027" d="M.684 7.174A11 11 0 0 0 0 11c0 1.345.242 2.634.684 3.826h20.632c.442-1.192.684-2.48.684-3.826s-.242-2.635-.684-3.826z"/></g><defs><clipPath id="a"><path fill="#fff" d="M0 0h22v22H0z"/></clipPath></defs></svg>