<svg xmlns="http://www.w3.org/2000/svg" width="22" height="22" fill="none" viewBox="0 0 22 22"><g clip-path="url(#a)"><path fill="#F0F0F0" d="M11 22c6.075 0 11-4.925 11-11S17.075 0 11 0 0 4.925 0 11s4.925 11 11 11"/><path fill="#0052B4" d="M2.274 4.303A11 11 0 0 0 .379 8.13H6.1zM21.62 8.13a11 11 0 0 0-1.894-3.827l-3.828 3.828zM.379 13.87a11 11 0 0 0 1.895 3.827L6.1 13.87zM17.697 2.274A11 11 0 0 0 13.869.379V6.1zM4.303 19.726A11 11 0 0 0 8.13 21.62v-5.723zM8.13.379a11 11 0 0 0-3.827 1.895L8.13 6.1zM13.87 21.62a11 11 0 0 0 3.827-1.894l-3.828-3.828zM15.898 13.87l3.828 3.827a11 11 0 0 0 1.895-3.827z"/><path fill="#D80027" d="M21.907 9.565h-9.472V.093a11 11 0 0 0-2.87 0v9.472H.093a11 11 0 0 0 0 2.87h9.472v9.472a11 11 0 0 0 2.87 0v-9.472h9.472a11 11 0 0 0 0-2.87"/><path fill="#D80027" d="m13.87 13.87 4.908 4.908q.338-.338.646-.706l-4.202-4.202zM8.13 13.87l-4.908 4.908q.338.338.706.647l4.202-4.203zM8.13 8.13 3.222 3.222q-.338.338-.647.706L6.778 8.13zM13.87 8.13l4.908-4.908a11 11 0 0 0-.706-.647l-4.203 4.203z"/></g><defs><clipPath id="a"><path fill="#fff" d="M0 0h22v22H0z"/></clipPath></defs></svg>