<svg xmlns="http://www.w3.org/2000/svg" width="28" height="20" fill="none" viewBox="0 0 28 20"><rect width="28" height="20" fill="#fff" rx="2"/><mask id="a" width="28" height="20" x="0" y="0" maskUnits="userSpaceOnUse" style="mask-type:luminance"><rect width="28" height="20" fill="#fff" rx="2"/></mask><g mask="url(#a)"><path fill="#DD172C" fill-rule="evenodd" d="M0 5.333h28V0H0zM0 20h28v-5.333H0z" clip-rule="evenodd"/><path fill="#FFD133" fill-rule="evenodd" d="M0 14.667h28V5.333H0z" clip-rule="evenodd"/><path fill="#FFEDB1" fill-rule="evenodd" d="M7.333 9.333h1.333V10H7.333z" clip-rule="evenodd"/><path stroke="#A41517" stroke-width=".667" d="M6.392 9h1.883c.195 0 .35.167.333.361l-.171 2.056a1 1 0 0 1-.997.917h-.212a1 1 0 0 1-.998-.917L6.06 9.36A.333.333 0 0 1 6.392 9Z"/><path fill="#A41517" fill-rule="evenodd" d="M6 10h2.667v.667H8L7.333 12l-.666-1.333H6z" clip-rule="evenodd"/><rect width="1.333" height="4.667" x="4" y="8" fill="#A41517" rx=".667"/><rect width="1.333" height="4.667" x="9.333" y="8" fill="#A41517" rx=".667"/><path fill="#A41517" d="M6 7.733c0-.589.478-1.066 1.067-1.066H7.6c.59 0 1.067.477 1.067 1.066 0 .148-.12.267-.267.267H6.267A.267.267 0 0 1 6 7.733"/></g></svg>