<svg xmlns="http://www.w3.org/2000/svg" width="28" height="20" fill="none" viewBox="0 0 28 20"><rect width="28" height="20" fill="#fff" rx="2"/><mask id="a" width="28" height="20" x="0" y="0" maskUnits="userSpaceOnUse" style="mask-type:luminance"><rect width="28" height="20" fill="#fff" rx="2"/></mask><g mask="url(#a)"><path fill="#D02F44" fill-rule="evenodd" d="M28 0H0v1.333h28zm0 2.667H0V4h28zM0 5.333h28v1.334H0zM28 8H0v1.333h28zM0 10.667h28V12H0zm28 2.666H0v1.334h28zM0 16h28v1.333H0zm28 2.667H0V20h28z" clip-rule="evenodd"/><path fill="#46467F" d="M0 0h12v9.333H0z"/><g filter="url(#b)"><path fill="url(#c)" fill-rule="evenodd" d="M2.666 2a.667.667 0 1 1-1.333 0 .667.667 0 0 1 1.333 0m2.667 0A.667.667 0 1 1 4 2a.667.667 0 0 1 1.333 0m2 .667a.667.667 0 1 0 0-1.334.667.667 0 0 0 0 1.334M10.666 2a.667.667 0 1 1-1.333 0 .667.667 0 0 1 1.333 0M3.333 4a.667.667 0 1 0 0-1.333.667.667 0 0 0 0 1.333m3.333-.667a.667.667 0 1 1-1.333 0 .667.667 0 0 1 1.333 0m2 .667a.667.667 0 1 0 0-1.333.667.667 0 0 0 0 1.333m2 .667a.667.667 0 1 1-1.333 0 .667.667 0 0 1 1.333 0m-3.333.666a.667.667 0 1 0 0-1.333.667.667 0 0 0 0 1.333m-2-.666a.667.667 0 1 1-1.333 0 .667.667 0 0 1 1.333 0M2 5.333A.667.667 0 1 0 2 4a.667.667 0 0 0 0 1.333M4 6a.667.667 0 1 1-1.334 0A.667.667 0 0 1 4 6m2 .667a.667.667 0 1 0 0-1.334.667.667 0 0 0 0 1.334M9.333 6A.667.667 0 1 1 8 6a.667.667 0 0 1 1.333 0M10 8a.667.667 0 1 0 0-1.333A.667.667 0 0 0 10 8m-2-.667a.667.667 0 1 1-1.334 0 .667.667 0 0 1 1.334 0M4.666 8a.667.667 0 1 0 0-1.333.667.667 0 0 0 0 1.333m-2-.667a.667.667 0 1 1-1.333 0 .667.667 0 0 1 1.333 0" clip-rule="evenodd"/></g></g><defs><linearGradient id="c" x1="1.333" x2="1.333" y1="1.333" y2="8" gradientUnits="userSpaceOnUse"><stop stop-color="#fff"/><stop offset="1" stop-color="#F0F0F0"/></linearGradient><filter id="b" width="9.333" height="7.667" x="1.333" y="1.333" color-interpolation-filters="sRGB" filterUnits="userSpaceOnUse"><feFlood flood-opacity="0" result="BackgroundImageFix"/><feColorMatrix in="SourceAlpha" result="hardAlpha" values="0 0 0 0 0 0 0 0 0 0 0 0 0 0 0 0 0 0 127 0"/><feOffset dy="1"/><feColorMatrix values="0 0 0 0 0 0 0 0 0 0 0 0 0 0 0 0 0 0 0.06 0"/><feBlend in2="BackgroundImageFix" result="effect1_dropShadow_3817_13099"/><feBlend in="SourceGraphic" in2="effect1_dropShadow_3817_13099" result="shape"/></filter></defs></svg>