<svg xmlns="http://www.w3.org/2000/svg" width="28" height="20" fill="none" viewBox="0 0 28 20"><rect width="27.5" height="19.5" x=".25" y=".25" fill="#fff" stroke="#EBEBEB" stroke-width=".5" rx="1.75"/><mask id="a" width="28" height="20" x="0" y="0" maskUnits="userSpaceOnUse" style="mask-type:luminance"><rect width="27.5" height="19.5" x=".25" y=".25" fill="#fff" stroke="#fff" stroke-width=".5" rx="1.75"/></mask><g fill="#FF3131" mask="url(#a)"><path d="M20 0h8v20h-8z"/><path fill-rule="evenodd" d="M0 20h8V0H0zM16.112 9.222a.333.333 0 0 1-.563-.302l.45-2.253-1.333.666-.666-2-.667 2L12 6.667l.45 2.253a.333.333 0 0 1-.562.302l-.32-.32a.333.333 0 0 0-.47 0l-.432.431-1.333-.666L10 10l-.431.43a.333.333 0 0 0 0 .472l1.764 1.765h2l.333 2h.667l.333-2h2l1.765-1.765a.333.333 0 0 0 0-.471L18 10l.666-1.333-1.333.666-.431-.43a.333.333 0 0 0-.471 0z" clip-rule="evenodd"/></g></svg>