<svg xmlns="http://www.w3.org/2000/svg" width="32" height="22" fill="none" viewBox="0 0 32 22"><rect width="32" height="22" fill="#fff" rx="2"/><mask id="a" width="32" height="22" x="0" y="0" maskUnits="userSpaceOnUse" style="mask-type:luminance"><rect width="32" height="22" fill="#fff" rx="2"/></mask><g mask="url(#a)"><path fill="#0A17A7" d="M0 0h32v22H0z"/><path fill="#fff" fill-rule="evenodd" d="M-1.466-2.108 12.19 6.758v-8.225h7.62v8.225l13.656-8.866L35.17.324l-10.797 7.01H32v7.333h-7.627l10.797 7.01-1.704 2.431-13.657-8.866v8.225H12.19v-8.225l-13.656 8.866-1.704-2.432 10.797-7.01H0V7.334h7.627L-3.17.323z" clip-rule="evenodd"/><path stroke="#DB1F35" stroke-linecap="round" stroke-width=".667" d="M21.335 6.965 35.81-2.2M22.872 15.067l12.975 8.418M9.15 6.942l-13.536-8.78M10.617 14.965l-15.003 9.577"/><path fill="#E6273E" fill-rule="evenodd" d="M0 13.2h13.714V22h4.572v-8.8H32V8.8H18.286V0h-4.572v8.8H0z" clip-rule="evenodd"/></g></svg>