<svg xmlns="http://www.w3.org/2000/svg" width="28" height="20" fill="none" viewBox="0 0 28 20"><rect width="28" height="20" fill="#fff" rx="2"/><mask id="a" width="28" height="20" x="0" y="0" maskUnits="userSpaceOnUse" style="mask-type:luminance"><rect width="28" height="20" fill="#fff" rx="2"/></mask><g mask="url(#a)"><path fill="#0A17A7" d="M0 0h28v20H0z"/><path fill="#FF2E3B" stroke="#fff" stroke-width=".667" d="M12.333.495a.67.67 0 0 1-.28.543L7.668 4.171V5.18l4.098 3.512a.554.554 0 0 1-.683.871l-4.523-3.23h-1.13L.177 9.616l-.51.319v-1.44l.14-.1 4.526-3.233v-1.01l-4.55-3.9L-.9-.332H.773l.087.062L5.44 3H6.57l5.252-3.282.51-.32z"/><path fill="url(#b)" fill-rule="evenodd" d="M0 3.333V6h4.667v3.333c0 .369.298.667.666.667h1.334a.667.667 0 0 0 .666-.667V6H12a.667.667 0 0 0 .667-.667V4A.667.667 0 0 0 12 3.333H7.333V0H4.667v3.333z" clip-rule="evenodd"/><path fill="url(#c)" fill-rule="evenodd" d="M0 4h5.333V0h1.334v4H12v1.333H6.667v4H5.333v-4H0z" clip-rule="evenodd"/><path fill="#fff" fill-rule="evenodd" d="m6 16.333-1.176.618.225-1.309-.951-.927 1.314-.19L6 13.332l.588 1.191 1.314.191-.95.927.224 1.31zM20 17.333l-.942.277.276-.943-.276-.943L20 16l.943-.276-.276.943.276.942zM20 4.667l-.942.276.276-.943-.276-.943.942.276.943-.276-.276.943.276.943zM24 8.667l-.942.276.276-.943-.276-.943.942.276.943-.276-.276.943.276.943zM16 10l-.943.276.277-.943-.277-.942.943.276.943-.276-.276.942.276.943zM22 11.667l-.472.138.138-.472-.138-.471L22 11l.471-.138-.138.471.138.472z" clip-rule="evenodd"/></g><defs><linearGradient id="b" x1="0" x2="0" y1="0" y2="10" gradientUnits="userSpaceOnUse"><stop stop-color="#fff"/><stop offset="1" stop-color="#F0F0F0"/></linearGradient><linearGradient id="c" x1="0" x2="0" y1="0" y2="9.333" gradientUnits="userSpaceOnUse"><stop stop-color="#FF2E3B"/><stop offset="1" stop-color="#FC0D1B"/></linearGradient></defs></svg>