<svg width="16" height="16" viewBox="0 0 16 16" fill="none" xmlns="http://www.w3.org/2000/svg">
<g clip-path="url(#clip0_4401_2038)">
<rect width="16" height="16" rx="8" fill="white"/>
<rect x="0.52381" y="0.523932" width="21.4524" height="15.0238" rx="3.66667" fill="#F9FAFB" stroke="#F9FAFB" stroke-width="1.04762"/>
<mask id="mask0_4401_2038" style="mask-type:luminance" maskUnits="userSpaceOnUse" x="0" y="0" width="23" height="17">
<rect y="0.00012207" width="22.5" height="16.0714" rx="4.19048" fill="white"/>
</mask>
<g mask="url(#mask0_4401_2038)">
<path fill-rule="evenodd" clip-rule="evenodd" d="M0 8.57155H22.5V0.00012207H0V8.57155Z" fill="#E12237"/>
<path d="M5.35669 1.07153C6.11713 1.07153 6.81509 1.33712 7.36548 1.77856C7.07371 1.66949 6.75877 1.60771 6.42896 1.60767C4.94976 1.60767 3.75047 2.80626 3.75024 4.2854C3.75024 5.76473 4.94962 6.96411 6.42896 6.96411C6.75887 6.96406 7.07363 6.90138 7.36548 6.79224C6.81503 7.23388 6.11732 7.50024 5.35669 7.50024C3.58168 7.50002 2.14282 6.06046 2.14282 4.2854C2.14305 2.51053 3.58182 1.07176 5.35669 1.07153ZM6.96411 5.35767C7.25993 5.35767 7.50017 5.59702 7.50024 5.89282C7.50024 6.18869 7.25998 6.42896 6.96411 6.42896C6.66829 6.4289 6.42896 6.18865 6.42896 5.89282C6.42903 5.59705 6.66834 5.35772 6.96411 5.35767ZM9.10669 5.35767C9.40251 5.35767 9.64275 5.59702 9.64282 5.89282C9.64282 6.18869 9.40256 6.42896 9.10669 6.42896C8.81101 6.42874 8.57153 6.18856 8.57153 5.89282C8.57161 5.59715 8.81105 5.35788 9.10669 5.35767ZM5.89282 3.21411C6.18868 3.21412 6.42896 3.45438 6.42896 3.75024C6.42888 4.04604 6.18864 4.28539 5.89282 4.2854C5.597 4.2854 5.35676 4.04605 5.35669 3.75024C5.35669 3.45438 5.59696 3.21411 5.89282 3.21411ZM10.179 3.21411C10.4746 3.21433 10.7141 3.45451 10.7141 3.75024C10.714 4.04591 10.4746 4.28519 10.179 4.2854C9.88313 4.2854 9.6429 4.04605 9.64282 3.75024C9.64282 3.45438 9.88309 3.21411 10.179 3.21411ZM8.0354 1.60767C8.33122 1.60767 8.57146 1.84702 8.57153 2.14282C8.57153 2.43869 8.33127 2.67896 8.0354 2.67896C7.73966 2.6788 7.50024 2.43859 7.50024 2.14282C7.50032 1.84711 7.73971 1.60782 8.0354 1.60767Z" fill="white"/>
</g>
</g>
<defs>
<clipPath id="clip0_4401_2038">
<rect width="16" height="16" rx="8" fill="white"/>
</clipPath>
</defs>
</svg>
