<svg xmlns="http://www.w3.org/2000/svg" width="100" height="24" fill="none" viewBox="0 0 100 24"><path fill="#111928" d="M13.132 6.561h4.202v17.001h-4.202v-1.795q-1.231 1.185-2.468 1.71T7.98 24c-2.161 0-4.035-.851-5.614-2.553Q0 18.892 0 15.094c0-2.533.764-4.775 2.293-6.453Q4.585 6.124 7.86 6.124q1.507 0 2.827.58 1.32.577 2.445 1.735V6.56m-4.419 3.501q-1.95 0-3.238 1.398-1.29 1.399-1.291 3.585c0 1.458.437 2.677 1.311 3.625q1.312 1.422 3.23 1.422c1.279 0 2.415-.465 3.283-1.398q1.306-1.4 1.305-3.664c0-1.509-.434-2.677-1.305-3.594q-1.303-1.377-3.298-1.377zM21.423 6.561h4.201v1.953q1.08-1.203 2.394-1.796a6.9 6.9 0 0 1 2.873-.594c1.038 0 1.992.26 2.834.781q1.262.784 2.034 2.282 1-1.499 2.456-2.282t3.182-.781c1.15 0 2.24.28 3.143.845.904.561 1.553 1.298 1.951 2.203q.592 1.36.592 4.422v9.968h-4.235v-8.625q0-2.893-.708-3.915T40.017 10q-1.078 0-1.933.625t-1.27 1.726-.416 3.54v7.672h-4.234V15.33q0-2.282-.333-3.305-.331-1.022-.994-1.524-.665-.5-1.605-.501-1.052 0-1.907.634-.857.633-1.281 1.775-.425 1.14-.425 3.594v7.563h-4.202V6.561zM55.222 0v8.439c.758-.77 1.582-1.35 2.462-1.736a7 7 0 0 1 2.834-.58q3.28 0 5.573 2.518 2.293 2.515 2.293 6.453c0 2.625-.791 4.647-2.37 6.353S62.56 24 60.393 24a6.9 6.9 0 0 1-2.695-.522c-.833-.347-1.656-.92-2.48-1.711v1.795h-4.172V0h4.175m4.419 10.062q-1.987 0-3.295 1.377-1.307 1.376-1.308 3.594c0 1.48.437 2.732 1.308 3.664q1.308 1.399 3.295 1.398c1.323 0 2.364-.474 3.241-1.422q1.317-1.421 1.318-3.625c0-1.47-.432-2.653-1.294-3.585q-1.293-1.399-3.265-1.398zM88.382 16.298H74.88q.294 1.812 1.561 2.882 1.269 1.07 3.242 1.072 2.355-.001 4.05-1.672l3.541 1.687q-1.323 1.907-3.172 2.819c-1.235.606-2.695.914-4.39.914q-3.941 0-6.42-2.523-2.48-2.522-2.48-6.32c0-2.532.824-4.748 2.471-6.462q2.472-2.571 6.197-2.571 3.956 0 6.436 2.571t2.48 6.788l-.015.812zm-4.202-3.36q-.418-1.42-1.642-2.311-1.226-.891-2.846-.89-1.755-.001-3.083.998-.831.624-1.544 2.204zM91.01 6.561h3.602v2.14q.584-1.267 1.555-1.922a3.7 3.7 0 0 1 2.123-.655q.814 0 1.71.437l-1.308 3.673q-.74-.374-1.217-.374-.968.001-1.638 1.22-.67 1.217-.67 4.78l.016.827v6.875H91.01z"/></svg>