<svg xmlns="http://www.w3.org/2000/svg" width="46" height="46" fill="none" viewBox="0 0 46 46"><path stroke="#000" stroke-linecap="round" stroke-width="1.2" d="m1 24.044 19-15.2 19 15.2"/><path fill="#fff" stroke="#000" stroke-linecap="round" stroke-width="1.2" d="m19.968 8.776 15.45 12.674V41a4.4 4.4 0 0 1-4.4 4.4h-22.1a4.4 4.4 0 0 1-4.4-4.4V21.45z"/><path fill="#FDC8D3" stroke="#000" stroke-width="1.2" d="M28.076 29.109c0 4.578-3.627 8.267-8.074 8.267s-8.074-3.69-8.074-8.267c0-4.578 3.627-8.267 8.074-8.267s8.074 3.689 8.074 8.267Z"/><path stroke="#000" stroke-linecap="round" stroke-width="1.2" d="m16.281 29.62 1.71 1.728a1 1 0 0 0 1.422 0L23.716 27M9.152 17.497v-4.7"/><path fill="#111928" d="M29.981.8a.4.4 0 0 1 .728 0l1.057 2.325a.4.4 0 0 0 .199.198l2.323 1.057a.4.4 0 0 1 0 .728l-2.323 1.056a.4.4 0 0 0-.2.199L30.71 8.687a.4.4 0 0 1-.728 0l-1.056-2.324a.4.4 0 0 0-.199-.199l-2.323-1.056a.4.4 0 0 1 0-.728l2.323-1.057a.4.4 0 0 0 .199-.198zM40.616 9.137a.4.4 0 0 1 .728 0l.517 1.138a.4.4 0 0 0 .199.198l1.137.518a.4.4 0 0 1 0 .728l-1.137.517a.4.4 0 0 0-.199.199l-.517 1.137a.4.4 0 0 1-.728 0l-.518-1.137a.4.4 0 0 0-.198-.199l-1.138-.517a.4.4 0 0 1 0-.728l1.138-.518a.4.4 0 0 0 .198-.198z"/></svg>