<svg xmlns="http://www.w3.org/2000/svg" width="46" height="46" fill="none" viewBox="0 0 46 46"><g stroke="#000" stroke-width="1.2" clip-path="url(#a)"><path fill="#fff" d="M31.853 10v32a3.4 3.4 0 0 1-3.4 3.4H4A3.4 3.4 0 0 1 .6 42V15.822a1.4 1.4 0 0 1 .357-.935l7.007-7.821A1.4 1.4 0 0 1 9.007 6.6h19.446a3.4 3.4 0 0 1 3.4 3.4Z"/><circle cx="30.377" cy="36.373" r="9.023" fill="#FDC8D3"/><path stroke-linecap="round" d="m26.414 36.377 1.935 1.935a1 1 0 0 0 1.414 0l4.764-4.765M6.414 20.531h18.49M6.414 25.242h11.698M6.414 29.773h11.698M6.414 34.305h11.698"/><path fill="#FDC8D3" d="M1.568 16.603h4.565a3.6 3.6 0 0 0 3.6-3.6V7.73c0-1.005-1.237-1.483-1.914-.74L.754 14.764c-.643.707-.141 1.84.814 1.84Z"/></g><defs><clipPath id="a"><path fill="#fff" d="M0 0h46v46H0z"/></clipPath></defs></svg>