<svg xmlns="http://www.w3.org/2000/svg" width="22" height="22" fill="none" viewBox="0 0 22 22"><g clip-path="url(#a)"><path fill="#1877F2" d="M21.656 11C21.656 5.113 16.886.344 11 .344S.344 5.114.344 11c0 5.319 3.897 9.727 8.991 10.527V14.08H6.628V11h2.707V8.652c0-2.67 1.59-4.145 4.025-4.145a16.4 16.4 0 0 1 2.386.208v2.62H14.4c-1.323 0-1.736.822-1.736 1.665v2h2.955l-.472 3.08h-2.483v7.447c5.094-.8 8.991-5.208 8.991-10.527"/></g><defs><clipPath id="a"><path fill="#fff" d="M0 0h22v22H0z"/></clipPath></defs></svg>