<svg xmlns="http://www.w3.org/2000/svg" width="46" height="46" fill="none" viewBox="0 0 46 46"><path fill="#FDC8D3" stroke="#000" stroke-linecap="round" stroke-width="1.2" d="M23.944 26.36c-3.541-2.313-8.773-6.862-10.834-12.727-1.451-4.13-.16-7.291 2.148-8.827 2.326-1.548 5.85-1.56 9.089.978a1.75 1.75 0 0 0 2.178-.03c3.026-2.484 6.672-2.441 9.18-.84 2.485 1.585 3.92 4.743 2.434 8.708-2.15 5.73-7.566 10.353-11.206 12.73a2.72 2.72 0 0 1-2.989.007Z"/><path fill="#fff" d="M8.797 29.07h3.851a4 4 0 0 1 1.863.46l5.185 2.73a4 4 0 0 0 1.863.46h4.486a3.65 3.65 0 0 1 3.65 3.65l11.791-5.482a2.493 2.493 0 0 1 2.185 4.48l-18.753 9.578a4 4 0 0 1-3.184.199l-8.775-3.183a4 4 0 0 0-1.364-.24H8.797a1 1 0 0 1-1-1V30.07a1 1 0 0 1 1-1"/><path stroke="#000" stroke-linecap="round" stroke-width="1.2" d="M29.695 36.37v0a3.65 3.65 0 0 0-3.65-3.65H21.56a4 4 0 0 1-1.863-.46l-5.185-2.73a4 4 0 0 0-1.863-.46H8.797a1 1 0 0 0-1 1v10.653a1 1 0 0 0 1 1h2.798c.465 0 .927.08 1.364.24l8.775 3.182a4 4 0 0 0 3.183-.199l18.754-9.578a2.493 2.493 0 0 0 1.03-3.456v0a2.493 2.493 0 0 0-3.215-1.024zm0 0H18.746m0 0c-.487.284-1.46 1.192-1.46 2.555 0-1.558.973-2.352 1.46-2.555Z"/><path fill="#fff" stroke="#000" stroke-linecap="round" stroke-width="1.2" d="m.677 42.755 1.07-14.667a.4.4 0 0 1 .4-.37h6.342c.221 0 .4.178.4.4v14.666a.4.4 0 0 1-.4.4H1.076a.4.4 0 0 1-.4-.429Z"/></svg>