<svg xmlns="http://www.w3.org/2000/svg" width="46" height="46" fill="none" viewBox="0 0 46 46"><g stroke="#000" stroke-width="1.2" clip-path="url(#a)"><path fill="#fff" stroke-linecap="round" d="M2.431 11.736c4.134-.435 10.67-2.012 14.606-6.077.23-.238.715-.248.993.035 1.587 1.613 4.063 2.877 6.62 3.833 2.573.962 5.297 1.637 7.442 2.044.707.135 1.227.74 1.247 1.445q.024.823.055 1.707c.154 4.437.345 9.955-1.05 15.237-1.566 5.938-5.133 11.554-13.087 14.89a4.42 4.42 0 0 1-3.41-.001C7.984 41.546 4.242 35.965 2.47 30.062.77 24.389.89 18.429.982 13.868l.013-.634c.014-.762.632-1.414 1.436-1.498Z"/><path fill="#84E1BC" d="M26.09 24.62c0 4.947-3.92 8.935-8.727 8.935s-8.728-3.988-8.728-8.934c0-4.947 3.92-8.935 8.728-8.935s8.727 3.988 8.727 8.935Z"/><path stroke-linecap="round" d="m13.363 25.17 1.893 1.912a1 1 0 0 0 1.421 0l4.681-4.73"/></g><defs><clipPath id="a"><path fill="#fff" d="M0 0h46v46H0z"/></clipPath></defs></svg>