<svg xmlns="http://www.w3.org/2000/svg" width="46" height="46" fill="none" viewBox="0 0 46 46"><g clip-path="url(#a)"><path fill="#fff" stroke="#000" stroke-linecap="round" stroke-width="1.2" d="M21.914 9.206v8.04l5.022-5.734V9.206a2.51 2.51 0 1 0-5.022 0Z"/><path fill="#FDC8D3" stroke="#000" stroke-linecap="round" stroke-width="1.2" d="m7.78 43.28 8.506-10.939 9.626 8.758-2.745 3.854a1.4 1.4 0 0 1-1.14.587H8.885c-1.165 0-1.82-1.34-1.105-2.26Z"/><path fill="#fff" d="M16.826 22.586 30.858 7.062a2.69 2.69 0 0 1 4.12 3.455l-9.866 12.689 3.42-4.185a2.914 2.914 0 1 1 4.495 3.71l-5.176 6.209 4.543-5.38a2.787 2.787 0 0 1 4.303 3.542l-4.052 5.049 3.278-4.043a2.8 2.8 0 0 1 3.912-.43 2.763 2.763 0 0 1 .444 3.886l-3.62 4.547c-4.104 5.155-11.615 5.995-16.756 1.875l-1.967-1.577c-4.28-3.43-4.787-9.754-1.11-13.823"/><path fill="#000" d="m30.858 7.062.445.403zM16.826 22.586l-.445-.402zm1.11 13.823-.375.468zm1.967 1.577.375-.469zm16.756-1.874.47.373zm3.62-4.548-.469-.374zm-4.356-3.456.466.378zm-3.278 4.043-.468-.376a.6.6 0 0 0 .934.754zm4.052-5.049-.468-.375zm-4.303-3.542.458.387zm-4.543 5.38-.46-.385a.6.6 0 0 0 .919.772zm5.176-6.208-.46-.384zm-4.494-3.71.464.379zm-3.42 4.184-.474-.369a.6.6 0 0 0 .938.748zm9.864-12.689.474.369zm-2.362 8.077-.376.468zm3.765 4.685-.4.448zm3.455 4.4.373-.471zM34.638 6.852l-.398.45zm-4.225-.193L16.381 22.184l.89.805L31.303 7.465zM17.561 36.877l1.967 1.577.75-.937-1.967-1.576zm19.567-.392 3.62-4.548-.938-.747-3.62 4.548zm-1.67-8.755-3.28 4.043.933.756 3.278-4.043zm-2.345 4.796 4.052-5.048-.936-.751-4.052 5.048zm-1.177-9.353-4.543 5.38.917.774 4.542-5.38zm-3.624 6.15 5.176-6.207-.922-.768-5.176 6.207zm-.244-10.682-3.42 4.185.929.76 3.42-4.185zm-2.482 4.933 9.865-12.689-.947-.736-9.865 12.688zm7.405-5.447a3.514 3.514 0 0 0-4.923.514l.93.76a2.314 2.314 0 0 1 3.241-.34zm.497 4.99a3.514 3.514 0 0 0-.497-4.99l-.752.935a2.314 2.314 0 0 1 .328 3.286zm3.291-.285a3.387 3.387 0 0 0-4.843.34l.916.775a2.187 2.187 0 0 1 3.128-.22zm.386 4.646a3.387 3.387 0 0 0-.386-4.646l-.799.895c.867.775.977 2.093.249 3zm-.776 1.008a2.2 2.2 0 0 1 3.073-.338l.746-.94a3.4 3.4 0 0 0-4.75.522zm4.36 3.451a3.363 3.363 0 0 0-.541-4.729l-.746.94a2.163 2.163 0 0 1 .348 3.042zm-21.221 6.517c5.4 4.328 13.29 3.446 17.6-1.969l-.939-.747c-3.897 4.895-11.029 5.692-15.91 1.78zM35.45 10.886a3.29 3.29 0 0 0-.415-4.482l-.796.898a2.09 2.09 0 0 1 .264 2.847zm-19.07 11.298c-3.909 4.324-3.37 11.048 1.18 14.693l.75-.936c-4.01-3.214-4.485-9.14-1.04-12.952zm14.922-14.72a2.09 2.09 0 0 1 2.937-.162l.796-.898a3.29 3.29 0 0 0-4.623.256z"/><path fill="#FDC8D3" stroke="#000" stroke-linecap="round" stroke-width="1.2" d="m7.943 6.008.3.182.305-.172c.575-.322 1.624-.857 2.731-1.121 1.129-.27 2.149-.222 2.844.382.98.85 2.064 3.07 1.602 5.699-.445 2.539-2.36 5.555-7.473 8.021C3.034 16.53 1.078 13.46.68 10.906.269 8.26 1.498 6.08 2.72 5.34c.989-.6 2.027-.595 2.972-.35.955.246 1.767.726 2.25 1.02Z"/></g><defs><clipPath id="a"><path fill="#fff" d="M0 0h46v46H0z"/></clipPath></defs></svg>