<svg xmlns="http://www.w3.org/2000/svg" width="46" height="46" fill="none" viewBox="0 0 46 46"><path fill="#FDC8D3" stroke="#000" stroke-width="1.2" d="M42.4 17.422c0 7.557-6.108 13.68-13.638 13.68s-13.639-6.123-13.639-13.68c0-7.558 6.108-13.681 13.639-13.681S42.4 9.864 42.4 17.42Z"/><path fill="#FDC8D3" d="M7.552 30.269H1.336a.336.336 0 0 0-.336.336v13.988c0 .185.15.336.336.336h6.216c.186 0 .336-.15.336-.336V30.604a.336.336 0 0 0-.336-.335"/><path fill="#fff" d="M11.268 29.161a3 3 0 0 1-2.892 2.203H7.93v12.259l1.975.654c1.724.571 3.53.862 5.346.862h9.059a2.017 2.017 0 0 0 .032-4.033l-3.308-.053h3.673a1.997 1.997 0 0 0 .035-3.994l-2.91-.05h3.35a2.111 2.111 0 0 0 .052-4.222l-2.982-.075h4.54a2.043 2.043 0 0 0 .002-4.087h-8.792c-.668 0-1.145-.643-.995-1.293 1.274-5.505-.677-7.4-2.333-7.775-.431-.098-.818.217-.935.644z"/><path fill="#000" d="M7.93 31.364v-.6h-.6v.6zM13.74 20.2l.578.159zm.935-.644.133-.585zm7.578 13.155v-.6a.6.6 0 0 0-.015 1.2zm2.982.075-.015.6zm-3.402 4.222v-.6a.6.6 0 0 0-.01 1.2zm2.91.05.01-.6zm-3.708 3.994v-.6a.6.6 0 0 0-.01 1.2zm3.308.053.01-.6zM7.93 43.623h-.6v.433l.411.136zm1.975.654-.189.57zm1.363-15.116-.579-.16zm-9.932 1.707h6.216v-1.2H1.336zm5.952-.263v13.988h1.2V30.604zm.264 13.724H1.336v1.2h6.216zm-5.952.264V30.604H.4v13.989zm-.264-.264c.146 0 .264.118.264.264H.4c0 .517.42.936.936.936zm5.952.264c0-.146.118-.264.264-.264v1.2a.936.936 0 0 0 .936-.936zm.264-13.725a.264.264 0 0 1-.264-.263h1.2a.936.936 0 0 0-.936-.936zm-6.216-1.2a.936.936 0 0 0-.936.937h1.2a.264.264 0 0 1-.264.264zm6.594 2.296h.446v-1.2H7.93zm3.916-2.643 2.471-8.961-1.157-.319-2.47 8.96zm2.695-9.179c.656.149 1.396.598 1.85 1.622.463 1.046.653 2.75.032 5.433l1.169.27c.653-2.821.504-4.817-.104-6.189-.617-1.393-1.68-2.08-2.681-2.306zm3.46 9.084h8.793v-1.2h-8.792zm8.791 2.886h-4.54v1.2h4.54zm-4.555 1.2 2.982.074.03-1.2-2.982-.074zm2.944 3.097h-3.349v1.2h3.35zm-3.359 1.2 2.91.05.02-1.2-2.91-.05zm2.885 2.844h-3.673v1.2h3.673zm-3.682 1.2 3.307.053.02-1.2-3.308-.053zm3.285 2.886h-9.06v1.2h9.06zm-14.216-.832-1.975-.654-.378 1.14 1.975.654zm-1.564-.084v-12.26h-1.2v12.26zm17.197-.5c0 .782-.635 1.416-1.418 1.416v1.2a2.617 2.617 0 0 0 2.617-2.617zm.378-4.067c0 .772-.626 1.397-1.398 1.397v1.2a2.597 2.597 0 0 0 2.598-2.597zm-1.373-1.397a1.397 1.397 0 0 1 1.373 1.397h1.2a2.597 2.597 0 0 0-2.553-2.597zm1.96-2.762c0 .835-.676 1.512-1.51 1.512v1.2a2.71 2.71 0 0 0 2.71-2.712zm1.544-4.228c0 .797-.647 1.443-1.444 1.443v1.2a2.643 2.643 0 0 0 2.644-2.643zm-1.442-1.444c.796 0 1.442.646 1.442 1.444h1.2a2.64 2.64 0 0 0-2.642-2.643zm-1.575 4.161c.82.021 1.473.691 1.473 1.511h1.2a2.71 2.71 0 0 0-2.643-2.71zm-.887 8.32a1.417 1.417 0 0 1 1.395 1.416h1.2a2.617 2.617 0 0 0-2.576-2.616zM14.317 20.36a.36.36 0 0 1 .124-.192c.041-.03.071-.032.1-.026l.266-1.17c-.835-.19-1.471.432-1.647 1.069zm2.105 6.837c-.23.998.499 2.029 1.58 2.029v-1.2c-.254 0-.48-.257-.41-.559zm-1.171 17.342a16.4 16.4 0 0 1-5.157-.832l-.378 1.14a17.6 17.6 0 0 0 5.535.892zM8.376 31.964a3.6 3.6 0 0 0 3.47-2.643L10.689 29a2.4 2.4 0 0 1-2.313 1.763z"/><path fill="#fff" d="M33.674 19.851q0 1.676-1.161 2.678-1.162.987-3.217 1.003v1.346h-.659v-1.362q-1.836-.141-3.185-1.128-1.335-1.002-1.522-2.96h2.338q.235 1.003.863 1.52.627.516 1.506.626v-3.446l-.125-.03q-1.35-.3-2.182-.612a3.6 3.6 0 0 1-1.412-.986q-.596-.674-.596-1.848 0-1.128.55-1.91a3.3 3.3 0 0 1 1.506-1.191q.957-.408 2.18-.407h.079V9.797h.659v1.394q1.6.172 2.715 1.127 1.113.956 1.349 2.6h-2.306q-.174-.72-.628-1.159a2.36 2.36 0 0 0-1.13-.595v3.007h.016q1.364.297 2.228.626.879.33 1.506 1.065.628.736.628 1.99m-7.108-5.387q0 .643.518.97.533.33 1.553.58V13.07h-.125q-.879 0-1.413.376-.533.36-.533 1.018m2.73 7.141q.958-.015 1.522-.423.58-.422.58-1.221 0-.705-.533-1.065-.532-.36-1.569-.626z"/></svg>