<svg xmlns="http://www.w3.org/2000/svg" width="22" height="22" fill="none" viewBox="0 0 22 22"><path fill="url(#a)" d="M11.008 6.066a4.93 4.93 0 0 0-4.938 4.937 4.93 4.93 0 0 0 4.938 4.937 4.93 4.93 0 0 0 4.937-4.937 4.93 4.93 0 0 0-4.937-4.937m0 8.147a3.216 3.216 0 0 1-3.21-3.21c0-1.77 1.44-3.21 3.21-3.21s3.21 1.44 3.21 3.21-1.444 3.21-3.21 3.21m6.29-8.349c0 .64-.515 1.152-1.151 1.152a1.152 1.152 0 1 1 1.152-1.152m3.27 1.169c-.073-1.543-.425-2.91-1.555-4.035-1.126-1.126-2.493-1.478-4.035-1.555-1.59-.09-6.355-.09-7.945 0-1.538.073-2.905.425-4.035 1.55C1.868 4.12 1.52 5.487 1.443 7.03c-.09 1.59-.09 6.355 0 7.945.073 1.542.425 2.909 1.555 4.034s2.492 1.478 4.035 1.556c1.59.09 6.355.09 7.945 0 1.542-.073 2.909-.426 4.035-1.556 1.125-1.125 1.478-2.492 1.555-4.034.09-1.59.09-6.351 0-7.941m-2.054 9.646a3.25 3.25 0 0 1-1.83 1.83c-1.268.504-4.276.388-5.677.388s-4.412.111-5.676-.387a3.25 3.25 0 0 1-1.83-1.83c-.503-1.268-.387-4.276-.387-5.677s-.112-4.413.387-5.676a3.25 3.25 0 0 1 1.83-1.83c1.268-.503 4.276-.387 5.677-.387s4.412-.112 5.676.387a3.25 3.25 0 0 1 1.83 1.83c.503 1.268.387 4.275.387 5.676s.116 4.413-.387 5.676"/><defs><linearGradient id="a" x1="11.005" x2="11.005" y1="1.375" y2="20.631" gradientUnits="userSpaceOnUse"><stop stop-color="#AE44B2"/><stop offset="1" stop-color="#F8C77D"/></linearGradient></defs></svg>