<svg xmlns="http://www.w3.org/2000/svg" width="22" height="22" fill="none" viewBox="0 0 22 22"><path fill="#0066C8" d="M19.25 1.375H2.746a1.38 1.38 0 0 0-1.371 1.388v16.474a1.38 1.38 0 0 0 1.37 1.388H19.25c.756 0 1.375-.623 1.375-1.388V2.763c0-.765-.619-1.388-1.375-1.388m-12.057 16.5H4.34V8.688h2.857v9.187zM5.766 7.434a1.655 1.655 0 0 1 0-3.309c.911 0 1.655.743 1.655 1.654 0 .916-.74 1.655-1.655 1.655m12.122 10.441h-2.853v-4.469c0-1.065-.022-2.436-1.483-2.436-1.486 0-1.714 1.16-1.714 2.359v4.546H8.985V8.688h2.737v1.255h.039c.382-.722 1.314-1.482 2.702-1.482 2.888 0 3.425 1.903 3.425 4.378z"/></svg>