<svg xmlns="http://www.w3.org/2000/svg" width="22" height="22" fill="none" viewBox="0 0 22 22"><g clip-path="url(#a)"><path fill="#C8232C" d="M11 0c6.075 0 11 4.925 11 11s-4.925 11-11 11S0 17.075 0 11 4.925 0 11 0"/><path fill="#fff" d="M11.333 4.816c-3.876 0-5.83 2.691-5.83 4.935 0 1.358.532 2.567 1.672 3.017.186.073.354.003.408-.197l.166-.635c.055-.197.034-.267-.117-.44-.329-.375-.538-.86-.538-1.549 0-1.996 1.542-3.783 4.016-3.783 2.19 0 3.394 1.296 3.394 3.027 0 2.277-1.04 4.2-2.586 4.2-.853 0-1.492-.684-1.287-1.523.244-1 .72-2.08.72-2.802 0-.646-.358-1.186-1.1-1.186-.873 0-1.573.874-1.573 2.044 0 .746.26 1.25.26 1.25l-1.05 4.305c-.311 1.276-.046 2.843-.024 3 .014.094.138.116.194.046.08-.102 1.12-1.344 1.473-2.586.1-.35.574-2.17.574-2.17.283.524 1.111.984 1.992.984 2.622 0 4.4-2.314 4.4-5.412 0-2.342-2.049-4.525-5.164-4.525"/></g><defs><clipPath id="a"><path fill="#fff" d="M0 0h22v22H0z"/></clipPath></defs></svg>