<svg width="36" height="36" viewBox="0 0 36 36" fill="none" xmlns="http://www.w3.org/2000/svg">
<path d="M26.8861 12.3486C22.704 10.0096 15.9917 6.25352 5.58037 0.423973C4.87844 -0.0395979 4.07083 -0.100348 3.37305 0.135832L21.236 17.9988L26.8861 12.3486Z" fill="#32BBFF"/>
<path d="M3.37279 0.135742C3.24201 0.180039 3.11475 0.233477 2.99303 0.298024C2.22248 0.714837 1.65625 1.51689 1.65625 2.53129V33.466C1.65625 34.4804 2.22241 35.2825 2.99303 35.6992C3.11453 35.7637 3.24173 35.8174 3.37237 35.8619L21.2357 17.9987L3.37279 0.135742Z" fill="#32BBFF"/>
<path d="M21.2354 17.999L3.37207 35.8623C4.07006 36.1002 4.87767 36.0441 5.57982 35.5738C15.6766 29.92 22.3132 26.2084 26.5437 23.8495C26.6614 23.7833 26.7768 23.7186 26.8909 23.6546L21.2354 17.999Z" fill="#32BBFF"/>
<path d="M1.65625 17.999V33.4664C1.65625 34.4808 2.22241 35.2829 2.99303 35.6996C3.11453 35.7641 3.24173 35.8177 3.37237 35.8623L21.2357 17.999H1.65625Z" fill="#2C9FD9"/>
<path d="M5.57927 0.423838C4.74571 -0.126569 3.76274 -0.110889 2.99219 0.298049L20.9637 18.2697L26.8849 12.3485C22.7029 10.0094 15.9906 6.25339 5.57927 0.423838Z" fill="#29CC5E"/>
<path d="M20.9639 17.7275L2.99219 35.6991C3.76281 36.108 4.74571 36.1316 5.57927 35.5733C15.676 29.9195 22.3127 26.2079 26.5431 23.849C26.6609 23.7828 26.7763 23.7181 26.8903 23.6541L20.9639 17.7275Z" fill="#D93F21"/>
<path d="M34.3443 17.9989C34.3443 17.1418 33.9119 16.2768 33.0547 15.7971C33.0547 15.7971 31.4516 14.9027 26.538 12.1543L20.6934 17.9989L26.5437 23.8493C31.4034 21.1206 33.0546 20.2006 33.0546 20.2006C33.9119 19.721 34.3443 18.856 34.3443 17.9989Z" fill="#FFD500"/>
<path d="M33.0547 20.2008C33.9119 19.7211 34.3443 18.8561 34.3443 17.999H20.6934L26.5437 23.8494C31.4035 21.1208 33.0547 20.2008 33.0547 20.2008Z" fill="#FFAA00"/>
</svg>
