<svg xmlns="http://www.w3.org/2000/svg" width="32" height="32" fill="none" viewBox="0 0 32 32"><path fill="#fff" stroke="#111928" d="M15.762 2.35a.25.25 0 0 1 .476 0l2.71 8.342a1.25 1.25 0 0 0 1.19.864h8.77a.25.25 0 0 1 .148.452l-7.097 5.156a1.25 1.25 0 0 0-.454 1.397l2.71 8.343a.25.25 0 0 1-.384.279l-7.096-5.156a1.25 1.25 0 0 0-1.47 0L8.17 27.183a.25.25 0 0 1-.385-.28l2.71-8.342a1.25 1.25 0 0 0-.453-1.397l-7.097-5.156a.25.25 0 0 1 .147-.452h8.772a1.25 1.25 0 0 0 1.189-.864z"/><path fill="#FDC8D3" stroke="#000" d="m16.238 2.35 2.804 8.629a.25.25 0 0 1 0 .154L15.6 21.725a.25.25 0 0 1-.09.125l-7.34 5.333a.25.25 0 0 1-.385-.28l2.879-8.86 2.22-6.833 2.879-8.86a.25.25 0 0 1 .475 0Z"/></svg>