<svg xmlns="http://www.w3.org/2000/svg" width="216" height="144" fill="none" viewBox="0 0 216 144"><g fill="#EBEBEB"><path d="M110.304 37.11H55.705s5.412-8.54 13.743-8.54c8.332 0 10.944 5.895 10.944 5.895s5.62-3.203 10.236-3.203 8.64 4.232 8.64 4.232 6.509-2.273 11.036 1.616M188.81 51.566h-54.587s5.411-8.537 13.74-8.537 10.944 5.892 10.944 5.892 5.622-3.2 10.239-3.2c4.616 0 8.64 4.23 8.64 4.23s6.508-2.26 11.024 1.615M49.905 70.482H24.394s5.702-4.773 10.192-4.773 5.818 3.18 5.818 3.18 3.167-1.484 6.105-1.218 3.396 2.811 3.396 2.811M201.17 61.274h-25.508s5.7-4.77 10.19-4.77 5.817 3.18 5.817 3.18 3.168-1.484 6.106-1.218 3.395 2.808 3.395 2.808M163.791 20.896H138.28s5.7-4.771 10.193-4.771 5.817 3.18 5.817 3.18 3.168-1.484 6.106-1.218 3.395 2.808 3.395 2.808M40.337 47.507H14.83s5.7-4.77 10.19-4.77 5.817 3.18 5.817 3.18 3.168-1.485 6.109-1.219 3.392 2.809 3.392 2.809M194.366 83.987h-25.512s5.703-4.77 10.193-4.77 5.817 3.18 5.817 3.18 3.168-1.484 6.106-1.221 3.396 2.811 3.396 2.811"/></g><g opacity=".7"><path fill="#DBDBDB" d="M52.465 103.047s45.351.975 45.248 2.683c-.058.975-36 1.501-36 3.045 0 .89 38.759 1.222 38.759 2.197 0 .609-16.344 1.341-16.344 1.97 0 .959 24.048 1.405 24.192 1.894s-29.034.609-29.034 2.065c0 1.261 26.027.812 26.027 1.43s-10.561 1.144-10.561 1.75 23.616.732 24.414 1.341c.797.61-30.713.858-30.713 1.588 0 .729 23.579.858 23.579 1.43s-10.201 1.43-10.201 1.43 14.521-.787 14.521-1.559-7.289-.858-7.445-.975c-.155-.118 21.914-1.018 21.914-2.32s-20.16-1.504-20.16-1.747 18.792-.692 18.792-1.791-23.06-.975-23.06-1.221 29.932-1.19 29.932-1.799c0-1.127-23.945-1.373-23.945-1.942 0-1.015 32.95-.343 32.95-2.09 0-1.059-26.046-1.304-26.026-2.383.026-1.43 44.219-1.464 44.219-3.091 0-1.219-18.869-1.905-18.869-1.905H55.976"/><path fill="#DBDBDB" d="M141.59 107.332s6.422.509 8.026.549 4.971-.549 4.971-.549zM16.943 114.35s6.42.509 8.027.549 4.982-.549 4.982-.549zM37.708 107.83s11.019.904 13.772.978c2.754.075 8.525-.978 8.525-.978zM147.768 110.609s11.016.907 13.772.978c2.756.072 8.525-.978 8.525-.978zM68.616 128.182s11.02.906 13.772.978c2.754.071 8.528-.978 8.528-.978zM157.026 127.254s11.019.907 13.773.978c2.753.072 8.527-.978 8.527-.978zM20.138 100.439s11.016.904 13.772.979 8.525-.979 8.525-.979zM28.299 119.799s11.019.906 13.772.978 8.525-.978 8.525-.978zM173.88 119.004s11.019.904 13.775.978 8.525-.978 8.525-.978zM58.346 113.967s13.68 1.212 17.101 1.31c3.422.097 10.587-1.31 10.587-1.31zM150.538 119.59s-9.423 1.293-11.782 1.396-7.292-1.396-7.292-1.396zM200.863 100.928s-9.426 1.292-11.782 1.395-7.292-1.395-7.292-1.395zM119.232 103.938s6.42.858 8.027.92 4.968-.92 4.968-.92zM77.11 104.4s-9.412 1.001-11.765 1.081-7.283-1.081-7.283-1.081zM79.776 118.777s3.361.527 4.54.549c1.177.023 4.993-.549 4.993-.549zM50.648 115.844s3.361.526 4.54.549c1.177.023 5.005-.549 5.005-.549zM92.863 125.662s3.361.529 4.54.549c1.177.02 4.993-.549 4.993-.549zM26.52 123.254s3.36.529 4.538.549 4.994-.549 4.994-.549zM151.967 120.715s3.361.529 4.539.549 4.994-.549 4.994-.549zM178.453 110.561s3.361.526 4.539.549 4.994-.549 4.994-.549zM187.598 122.979s3.358.529 4.536.549 4.996-.549 4.996-.549zM113.68 123.254s1.728.529 2.338.549 2.575-.549 2.575-.549zM128.54 115.74s2.434.363 3.286.378c.853.014 3.615-.378 3.615-.378zM99.61 107.682s-2.652.509-3.314.549c-.663.04-5.553-.549-5.553-.549zM115.618 106.482s-1.794.509-2.24.55c-.447.04-3.759-.55-3.759-.55z"/><path fill="#fff" d="m115.471 109.561 1.201.223.268 1.258.27-1.258 1.201-.223-1.198-.292-.273-1.187-.274 1.187zM100.221 115.683l1.204.22.267 1.258.268-1.258 1.204-.22-1.198-.292-.274-1.19-.273 1.19zM101.013 112.088a.123.123 0 0 1 .088.21.125.125 0 0 1-.175 0 .123.123 0 0 1 .087-.21M111.554 111.484c.032 0 .064.013.087.036a.123.123 0 0 1-.087.21.123.123 0 0 1-.088-.21.13.13 0 0 1 .088-.036M115.618 119.246q.05 0 .088.036a.123.123 0 0 1 0 .174.127.127 0 0 1-.176 0 .123.123 0 0 1 0-.174.13.13 0 0 1 .088-.036M99.61 123.693a.124.124 0 0 1 .124.123.124.124 0 0 1-.248 0 .124.124 0 0 1 .124-.123M128.736 113.422q.05 0 .088.036a.123.123 0 0 1 0 .174.13.13 0 0 1-.088.036.12.12 0 0 1-.087-.036.12.12 0 0 1 0-.174.12.12 0 0 1 .087-.036M72.577 108.91a.124.124 0 0 1 .124.123.124.124 0 0 1-.248 0 .124.124 0 0 1 .124-.123M141.711 109.252q.051 0 .087.036a.12.12 0 0 1 .037.087.12.12 0 0 1-.037.087.125.125 0 0 1-.175 0 .123.123 0 0 1 0-.174.13.13 0 0 1 .088-.036M119.232 109.918a.24.24 0 0 1 .152.078.235.235 0 0 1 0 .316.24.24 0 0 1-.152.078.24.24 0 0 1-.212-.236.23.23 0 0 1 .061-.158.24.24 0 0 1 .151-.078M120.813 122.576a.24.24 0 0 1 .213.236.238.238 0 0 1-.213.236.24.24 0 0 1-.212-.236.24.24 0 0 1 .212-.236M78.52 117.239l.767.14.17.801.172-.801.763-.14-.76-.186-.175-.758-.173.758zM129.592 114.486l.766.14.17.801.17-.801.766-.14-.763-.186-.173-.755-.176.755zM86.959 111.411l.43.077.094.449.095-.449.426-.077-.423-.103-.098-.423-.098.423zM89.975 111.873a.24.24 0 0 1 .151.078.235.235 0 0 1 0 .316.24.24 0 0 1-.151.078.24.24 0 0 1-.152-.078.235.235 0 0 1 0-.316.24.24 0 0 1 .152-.078M109.098 119.895l.426.08.095.447.095-.447.429-.08-.426-.103-.098-.423-.098.423zM139.499 109.46l.429.077.095.449.095-.449.429-.077-.426-.103-.098-.423-.098.423zM108.573 109.559l.426.081.098.446.095-.446.427-.081-.427-.103-.095-.423-.098.423z"/></g><g fill="#ED3A56"><path d="M55.259 25.765c.226-6.52-4.913-11.987-11.479-12.21-6.565-.225-12.07 4.878-12.296 11.398s4.913 11.987 11.479 12.21c6.565.225 12.07-4.878 12.296-11.398" opacity=".3"/><path d="M46.043 35.12c5.43-1.468 8.635-7.029 7.157-12.421s-7.077-8.575-12.507-7.107-8.634 7.027-7.157 12.42 7.077 8.574 12.507 7.107" opacity=".5"/></g><g fill="#263238"><path d="M195.864 72.265a7.5 7.5 0 0 0-.931-.469 4 4 0 0 0-1.028-.306.9.9 0 0 0-.328 0 .5.5 0 0 0-.101.04l-.069.04-.118.086a5 5 0 0 0-.403.358c-.254.246-.481.506-.709.775l.265-.075a8 8 0 0 0-1.051-.286 4 4 0 0 0-.556-.077 3 3 0 0 0-.288 0 .8.8 0 0 0-.325.092 2 2 0 0 0-.449.374 5 5 0 0 0-.343.424 6.5 6.5 0 0 0-.559.912c.245-.258.484-.518.737-.76.124-.121.251-.241.383-.347q.179-.16.395-.266a.95.95 0 0 1 .42 0q.25.034.493.1c.331.08.668.186.991.286l.161.057.104-.128c.21-.263.435-.518.662-.764q.163-.184.346-.349c.028-.023.057-.051.086-.071l.04-.029a.5.5 0 0 1 .188-.026q.496.033.979.16c.34.075.671.166 1.008.25M189.415 68.068a6 6 0 0 0-.576-.652 3.2 3.2 0 0 0-.691-.558.8.8 0 0 0-.256-.091.3.3 0 0 0-.092 0h-.064c-.043 0-.078.017-.118.025a4 4 0 0 0-.423.15c-.288.11-.53.24-.789.37l.227.03a6 6 0 0 0-.717-.555 3.4 3.4 0 0 0-.4-.232 2 2 0 0 0-.231-.092 1 1 0 0 0-.132-.028 1 1 0 0 0-.147 0 1.6 1.6 0 0 0-.464.146 5 5 0 0 0-.397.217 5.4 5.4 0 0 0-.717.526c.27-.12.535-.246.806-.352q.2-.085.406-.148.187-.07.386-.08a.8.8 0 0 1 .328.12q.182.103.346.231c.23.166.455.352.668.535l.107.095.118-.066c.245-.135.501-.26.752-.38q.182-.09.374-.158l.089-.028h.055a.4.4 0 0 1 .153.037q.37.18.699.429c.242.151.467.337.7.509M82.118 25.49a9.5 9.5 0 0 0-1.071-.73 5 5 0 0 0-1.218-.544 1 1 0 0 0-.404-.034.7.7 0 0 0-.135.032l-.09.04-.158.085q-.29.173-.558.375c-.352.263-.674.55-1 .84l.34-.048q-.605-.305-1.247-.529a5 5 0 0 0-.671-.18 2 2 0 0 0-.369-.046 1 1 0 0 0-.204 0q-.11.015-.213.052-.336.148-.614.389a7 7 0 0 0-.492.466 8 8 0 0 0-.838 1.035c.345-.286.685-.572 1.034-.818a7 7 0 0 1 .53-.369q.245-.168.53-.263c.174-.021.351-.004.518.052q.303.08.593.203c.395.151.792.334 1.172.523l.19.094.15-.143c.288-.286.62-.572.94-.832a6 6 0 0 1 .48-.375c.04-.022.084-.054.121-.071l.055-.031h.02a.6.6 0 0 1 .233 0q.608.12 1.181.354c.4.146.795.312 1.195.472M26.076 44.028a6 6 0 0 0-.731-.463 3.4 3.4 0 0 0-.827-.338.7.7 0 0 0-.27 0 .4.4 0 0 0-.087.026.3.3 0 0 0-.06.029c-.038.017-.07.04-.104.06a4 4 0 0 0-.363.26c-.23.183-.44.38-.65.572l.227-.04a6.5 6.5 0 0 0-.847-.326 4 4 0 0 0-.452-.109 2 2 0 0 0-.38-.023 1 1 0 0 0-.142.04q-.223.111-.4.286a5 5 0 0 0-.32.32 5.5 5.5 0 0 0-.535.71c.224-.192.443-.389.67-.572q.167-.138.346-.258.161-.118.349-.188a.9.9 0 0 1 .348.023q.203.05.398.123c.268.094.536.208.795.326l.126.06.098-.1c.193-.198.404-.392.608-.572q.15-.14.314-.26l.078-.052.037-.02q.076-.015.153 0 .41.066.798.212c.285.074.552.177.823.274M33.176 41.4a10 10 0 0 0-.804-1.012 5 5 0 0 0-1.002-.878 1.1 1.1 0 0 0-.374-.151.4.4 0 0 0-.139 0h-.098c-.063 0-.118.022-.175.034a6 6 0 0 0-.645.194c-.415.149-.81.323-1.207.506l.34.055a10 10 0 0 0-1.034-.872 6 6 0 0 0-.576-.372 3 3 0 0 0-.337-.152 1 1 0 0 0-.199-.051 1 1 0 0 0-.219 0c-.242.026-.48.09-.703.188-.21.09-.411.192-.607.286q-.585.33-1.112.744c.415-.163.821-.335 1.233-.475q.303-.114.616-.197.281-.088.576-.094c.173.03.337.099.481.2q.264.169.504.369c.331.263.657.555.962.858l.155.146.185-.092c.371-.186.763-.36 1.152-.52q.282-.123.576-.215l.135-.034h.08399999999999999q.116.014.222.068.544.294 1.022.687c.325.209.645.495.988.78"/></g><g fill="#263238"><path d="m201.075 97.756-23.241.069-23.242.026-46.483.048-46.48-.048-23.242-.023-23.242-.072 23.242-.071 23.242-.023 46.48-.049 46.483.049 23.242.026zM201.075 133.866l-23.241.068-23.242.026-46.483.049-46.48-.049-23.242-.023-23.242-.071 23.242-.069 23.242-.026 46.48-.048 46.483.048 23.242.026z"/></g><path fill="#ED3A56" d="M58.836 108.966a39 39 0 0 1-2.71 13.522c-1.613 4.033-11.937 8.217-14.769 11.391h4.724s10.998-7.796 11.897-11.299c2.016-7.814 1.224-13.728 1.224-13.728z"/><path fill="#000" d="M58.836 108.966a39 39 0 0 1-2.71 13.522c-1.613 4.033-11.937 8.217-14.769 11.391h4.724s10.998-7.796 11.897-11.299c2.016-7.814 1.224-13.728 1.224-13.728z" opacity=".5"/><path fill="#ED3A56" d="m49.314 131.449-.107.083h-.558c-.392 0-.787-.014-1.178-.034q.588-.024 1.178-.034zM48.45 130.103c-.193 0-.391.014-.576.026h-1.333c.046-.032.092-.057.141-.086h1.192zM47.129 130.403c-.196 0-.392.015-.576.023h-.492l.1-.063h.392zM55.452 126.109a.4.4 0 0 1-.046.049c-.236 0-.47 0-.703-.023.248-.011.501-.017.749-.026M56.206 125.301l-.063.074h-.176q-.588-.002-1.175-.034.588-.02 1.175-.032zM58.197 121.643v.048l-.715-.026zM58.692 118.065l-.576.02-.542.014.018-.066h.524c.184.015.38.014.576.032M59.233 114.809a.1.1 0 0 1 0 .025h-.348zM58.243 117.622c-.187 0-.377.014-.576.022v-.042z"/><path fill="#37474F" d="M55.383 103.535h1.2l-1.18.443c.047.529.185 1.047.406 1.53l1.262-.223-1.023.675q.146.247.32.475l.752-.166-.516.458q.365.42.798.772l.688-.464-.49.635q.86.648 1.835 1.104l-2.652-9.26a7.7 7.7 0 0 0-.962 1.779l.5.114-.595.143q-.106.306-.185.641l1.21.171-1.316.372a6 6 0 0 0-.052.801"/><path fill="#37474F" d="m52.627 107.263.559-.406-.4.649q.27.387.633.692l.737-.818-.325 1.119q.234.147.49.26l.5-.598-.155.735q.456.157.933.223l.475-1.144.03 1.19c.163 0 .333.017.512 0l.193-.778.245.761a11.6 11.6 0 0 0 2.355-.409l-7.346-3.18c.06.602.252 1.184.564 1.704M59.408 108.772a13.8 13.8 0 0 0 2.304-1.827l-.714-.701.982.423a9 9 0 0 0 .61-.726l-.7-.764 1.003.366a5 5 0 0 0 .389-.64l-1.348-.898 1.696.154c.198-.485.336-.992.412-1.51l-1.82-.904 1.886.157v-.403l-1.054-.22 1.034-.154a8 8 0 0 0-.147-.973l-1.57-.057 1.44-.446a8 8 0 0 0-1.192-2.471z"/><path fill="#37474F" d="m62.421 108.407-.109-.901.501.818c.144-.037.288-.08.44-.123l-.204-.658.438.572q.36-.116.711-.257l-.357-.818.76.64c.441-.2.86-.447 1.248-.735l-.864-1.144 1.224.844q.44-.39.772-.875l-.888-.961 1.115.572q.15-.276.256-.572l-1.414-1.098 1.622.286q.069-.418.069-.841l-1.132-.355 1.117-.054a8 8 0 0 0-.38-1.899s-3.202 5.906-7.952 7.899a15 15 0 0 0 3.027-.34"/><path fill="#37474F" d="m61.307 110.037.288-.346-.173.392q.162.066.331.114l.265-.489v.572q.236.054.478.075l.144-.884.222.898c.34-.004.68-.057 1.005-.157l.026-.695.216.612q.198-.076.389-.172l-.25-.815.532.658q.334-.198.628-.449l-.274-.521.412.404q.104-.09.199-.186l-.199-.286.32.18q.44-.449.772-.981c-2.67 1.55-7.258.835-7.258.835a6.7 6.7 0 0 0 1.927 1.241"/><path fill="#37474F" d="m54.801 110.98.207-.337-.049.392q.215.072.438.108l.121-.637.101.669q.343.04.685 0l.06-.644.289.572q.23-.053.45-.143l-.142-.534.323.457q.174-.081.34-.18l-.217-.658.576.424a6 6 0 0 0 .332-.266l-.24-.335.372.217a7.8 7.8 0 0 0 1.106-1.31s-3.393 1.682-5.87 1.551c.33.284.708.506 1.118.654M59.959 111.57l.52-.303-.388.515q.14.213.32.397l.426-.237-.288.366q.088.08.184.148l.53-.477-.288.635q.32.172.677.249l.331-.427-.092.47q.162.02.326.025l.192-.449v.452a3.8 3.8 0 0 0 1.046-.166c-2.434-.961-4.032-3.741-4.032-3.741-.029.878.155 1.75.536 2.543"/><path fill="#ED3A56" d="M57.888 110.274a.96.96 0 0 0 .567.915.98.98 0 0 0 1.069-.17.965.965 0 0 0-.628-1.675.98.98 0 0 0-.697.258.96.96 0 0 0-.31.672"/><path fill="#000" d="M57.888 110.274a.96.96 0 0 0 .567.915.98.98 0 0 0 1.069-.17.965.965 0 0 0-.628-1.675.98.98 0 0 0-.697.258.96.96 0 0 0-.31.672" opacity=".4"/><path fill="#ED3A56" d="M58.753 109.446a.96.96 0 0 0 .566.915.98.98 0 0 0 1.069-.17.965.965 0 0 0-.627-1.675.98.98 0 0 0-.698.258.96.96 0 0 0-.31.672"/><path fill="#000" d="M58.753 109.446a.96.96 0 0 0 .566.915.98.98 0 0 0 1.069-.17.965.965 0 0 0-.627-1.675.98.98 0 0 0-.698.258.96.96 0 0 0-.31.672" opacity=".3"/><path fill="#ED3A56" d="M57.788 109.239a.96.96 0 0 0 .567.915.98.98 0 0 0 1.068-.17.964.964 0 0 0-.627-1.675.98.98 0 0 0-.698.258.96.96 0 0 0-.31.672"/><path fill="#000" d="M57.788 109.239a.96.96 0 0 0 .567.915.98.98 0 0 0 1.068-.17.964.964 0 0 0-.627-1.675.98.98 0 0 0-.698.258.96.96 0 0 0-.31.672" opacity=".2"/><path fill="#ED3A56" d="M31.827 89.92a86.5 86.5 0 0 0 3.726 23.861c2.224 7.113 6.886 14.5 10.783 20.1h-6.483s-5.593-13.757-6.831-19.943c-2.76-13.785-1.682-24.215-1.682-24.215z"/><path fill="#000" d="M31.827 89.92a86.5 86.5 0 0 0 3.726 23.861c2.224 7.113 6.886 14.5 10.783 20.1h-6.483s-5.593-13.757-6.831-19.943c-2.76-13.785-1.682-24.215-1.682-24.215z" opacity=".3"/><path fill="#ED3A56" d="M38.166 129.586c.017.049.04.1.058.149.31 0 .628 0 .941-.015.539 0 1.08-.025 1.619-.06-.539-.031-1.08-.045-1.619-.06q-.502-.01-.999-.014M38.736 127.217c.271.017.539.023.81.037l.809.023q.807.019 1.618.017h.047q-.052-.078-.098-.157c-.522 0-1.046 0-1.567.02l-.81.02c-.27.023-.538.023-.809.04M39.574 126.175c.27.017.539.023.81.037l.809.023h.187q-.035-.063-.075-.126h-.12l-.81.023c-.262.017-.53.026-.8.043M34.776 120.168c0 .031.02.06.03.091.36 0 .713-.022 1.073-.045-.368-.02-.743-.035-1.103-.046M34.315 118.734c0 .049.032.095.047.143h.526c.542 0 1.08-.028 1.62-.06-.54-.031-1.078-.045-1.62-.06zM32.705 112.285l.017.086c.326 0 .654-.023.98-.043-.332-.02-.663-.031-.997-.043M32.025 105.968c.271.018.539.026.81.04l.743.02-.026-.114-.717.017c-.271.012-.539.02-.81.037M31.28 100.227a.3.3 0 0 0 0 .048l.481-.026zM32.643 105.197c.259.017.518.026.777.035 0-.023 0-.049-.014-.072-.254.017-.51.017-.763.037"/><path fill="#455A64" d="m39.96 82.543-1.944-.463 1.728 1.181a7.7 7.7 0 0 1-1.273 2.288l-1.938-.858 1.37 1.496a9 9 0 0 1-.705.635l-1.152-.572.642.94q-.756.528-1.592.922l-.925-1.018.527 1.198c-1.09.466-2.23.815-3.395 1.038l8.012-13.822a12.8 12.8 0 0 1 .827 3.243h-.85l.898.466q.046.529.038 1.101l-2.016-.206 1.961 1.127q-.06.66-.213 1.304M42.878 89.639l-.735-.875.383 1.2a6.3 6.3 0 0 1-1.302.859l-.863-1.613.069 1.93q-.437.143-.89.223l-.576-1.16-.026 1.246c-.528.045-1.06.04-1.587-.014l-.305-2.022-.527 1.902a11 11 0 0 1-.83-.18v-1.328l-.703 1.124a19.5 19.5 0 0 1-3.617-1.601l13.093-2.174a6.8 6.8 0 0 1-1.584 2.483"/><path fill="#455A64" d="M31.369 89.35a22.6 22.6 0 0 1-2.981-3.861l1.44-.859-1.745.287a15 15 0 0 1-.691-1.41l1.454-.956-1.757.186q-.218-.601-.366-1.181l2.529-.907-2.79-.431a11 11 0 0 1-.047-2.592l3.292-.738-3.096-.5q.072-.333.161-.65l1.783.067-1.598-.658a12 12 0 0 1 .63-1.502l2.543.535-2.134-1.296a13.5 13.5 0 0 1 2.918-3.497z"/><path fill="#455A64" d="m26.672 87.558.544-1.407-1.135 1.099q-.327-.178-.656-.375L26 85.9l-.936.763q-.533-.329-1.043-.7l.907-1.17-1.483.723a11.5 11.5 0 0 1-1.702-1.678l1.835-1.505-2.304.858a7.6 7.6 0 0 1-.887-1.716l1.814-1.19-2.016.495a7 7 0 0 1-.178-1.02l2.712-1.182-2.733-.163a8.5 8.5 0 0 1 .234-1.379l1.958-.117-1.771-.535a13.2 13.2 0 0 1 1.382-2.9s2.754 10.771 9.58 15.87a24.6 24.6 0 0 1-4.698-1.796"/><path fill="#455A64" d="m27.806 90.612-.325-.672.118.698a7 7 0 0 1-.576.051l-.24-.892-.247.895a6 6 0 0 1-.795-.069l.124-1.478-.72 1.352a5.9 5.9 0 0 1-1.53-.652l.24-1.127-.596.896a7 7 0 0 1-.553-.43l.731-1.212-1.123.858a8 8 0 0 1-.826-.972l.653-.73-.83.475a8 8 0 0 1-.244-.38l.44-.4-.575.16a9.5 9.5 0 0 1-.847-1.885c3.646 3.558 11.307 4.241 11.307 4.241a11.2 11.2 0 0 1-3.586 1.273"/><path fill="#455A64" d="m37.878 94.738-.196-.621-.08.646a5.4 5.4 0 0 1-.746 0l.063-1.075-.432 1.035a5 5 0 0 1-1.1-.286l.164-1.055-.68.823a5 5 0 0 1-.665-.408l.444-.807-.703.61a5 5 0 0 1-.475-.427l.613-.97-1.091.452a6 6 0 0 1-.426-.572l.52-.443-.682.203c-.511-.8-.93-1.655-1.25-2.548 0 0 4.75 4.05 8.787 4.813a6 6 0 0 1-2.065.63M29.347 93.632l-.706-.693.415.981q-.31.286-.668.51l-.593-.553.32.718a4 4 0 0 1-.358.166l-.656-.978.187 1.13a4.3 4.3 0 0 1-1.19.131l-.36-.82-.043.789a6 6 0 0 1-.53-.083l-.127-.8-.175.726a6.2 6.2 0 0 1-1.613-.684c4.303-.572 8.003-4.399 8.003-4.399-.492 1.82-1.16 3.05-1.906 3.859"/><path fill="#ED3A56" d="M33.212 92.372c-.066.309-.223.592-.45.812a1.61 1.61 0 0 1-1.758.326 1.6 1.6 0 0 1-.716-.597 1.59 1.59 0 0 1 .75-2.356 1.62 1.62 0 0 1 1.948.61 1.6 1.6 0 0 1 .226 1.205"/><path fill="#000" d="M33.212 92.372c-.066.309-.223.592-.45.812a1.61 1.61 0 0 1-1.758.326 1.6 1.6 0 0 1-.716-.597 1.59 1.59 0 0 1 .75-2.356 1.62 1.62 0 0 1 1.948.61 1.6 1.6 0 0 1 .226 1.205" opacity=".4"/><path fill="#ED3A56" d="M32.147 90.697c-.066.309-.223.592-.451.812a1.61 1.61 0 0 1-1.76.325 1.6 1.6 0 0 1-.714-.598 1.59 1.59 0 0 1 .022-1.776 1.61 1.61 0 0 1 1.661-.66 1.62 1.62 0 0 1 1.017.693 1.6 1.6 0 0 1 .225 1.204"/><path fill="#000" d="M32.147 90.697c-.066.309-.223.592-.451.812a1.61 1.61 0 0 1-1.76.325 1.6 1.6 0 0 1-.714-.598 1.59 1.59 0 0 1 .022-1.776 1.61 1.61 0 0 1 1.661-.66 1.62 1.62 0 0 1 1.017.693 1.6 1.6 0 0 1 .225 1.204" opacity=".3"/><path fill="#ED3A56" d="M33.782 90.745c-.066.31-.223.592-.45.813a1.61 1.61 0 0 1-1.76.324 1.6 1.6 0 0 1-.714-.597 1.59 1.59 0 0 1 .752-2.356 1.62 1.62 0 0 1 1.947.613 1.6 1.6 0 0 1 .225 1.203"/><path fill="#000" d="M33.782 90.745c-.066.31-.223.592-.45.813a1.61 1.61 0 0 1-1.76.324 1.6 1.6 0 0 1-.714-.597 1.59 1.59 0 0 1 .752-2.356 1.62 1.62 0 0 1 1.947.613 1.6 1.6 0 0 1 .225 1.203" opacity=".2"/><path fill="#ED3A56" d="M182.229 92.666a81.1 81.1 0 0 1-3.493 22.368c-2.085 6.67-6.457 13.594-10.112 18.845h6.08s5.244-12.899 6.405-18.696c2.592-12.927 1.575-22.702 1.575-22.702z"/><path fill="#000" d="M182.229 92.666a81.1 81.1 0 0 1-3.493 22.368c-2.085 6.67-6.457 13.594-10.112 18.845h6.08s5.244-12.899 6.405-18.696c2.592-12.927 1.575-22.702 1.575-22.702z" opacity=".3"/><path fill="#ED3A56" d="m176.285 129.855-.052.141h-.884c-.504 0-1.011-.026-1.518-.058a48 48 0 0 1 1.518-.054c.311-.023.619-.026.936-.029M175.753 127.63c-.254.017-.507.026-.761.037l-.757.02c-.507.015-1.011.015-1.518.017h-.043l.092-.145c.487 0 .979 0 1.469.017l.757.02zM174.966 126.654c-.254.017-.507.023-.76.034l-.758.023h-.176l.07-.117h.106l.758.02c.253.011.506.011.76.04M179.465 121.023c0 .029-.018.058-.029.086-.337 0-.668-.023-1.005-.043q.516-.03 1.034-.043M179.896 119.684l-.043.131h-.495c-.507 0-1.011-.026-1.518-.057a43 43 0 0 1 1.518-.054zM181.403 113.633v.08c-.305 0-.613-.02-.919-.04.297-.017.608-.032.919-.04M182.042 107.712c-.253.017-.504.023-.757.037l-.697.02c0-.037.014-.075.023-.109l.674.017c.253.012.504.017.757.035M182.741 102.316a.2.2 0 0 1 0 .046l-.452-.023zM181.463 106.99q-.363.02-.726.032v-.069c.251.012.49.02.726.037"/><path fill="#37474F" d="m174.603 85.748 1.817-.434-1.612 1.11c.27.779.673 1.506 1.192 2.15l1.817-.806-1.273 1.392q.314.316.66.595l1.068-.532-.599.884q.71.493 1.492.858l.864-.955-.504 1.152c1.024.436 2.092.762 3.185.973l-7.514-12.985c-.39.977-.651 2-.774 3.043l.797-.014-.841.438q-.045.515-.037 1.032l1.886-.191-1.837 1.055q.06.626.213 1.235M171.87 92.401l.688-.818-.36 1.124c.37.32.78.59 1.218.807l.804-1.51-.066 1.81q.409.132.832.209l.53-1.09.046 1.167q.744.07 1.489 0l.288-1.893.495 1.782c.251-.046.51-.1.775-.17v-1.243l.66 1.052a18.3 18.3 0 0 0 3.392-1.501l-12.28-2.05a6.3 6.3 0 0 0 1.489 2.324"/><path fill="#37474F" d="M182.658 92.133a21 21 0 0 0 2.794-3.62l-1.339-.781 1.638.271q.358-.645.648-1.321l-1.365-.895 1.648.174q.203-.562.342-1.11l-2.373-.857 2.618-.404c.112-.804.126-1.62.043-2.428l-3.087-.689 2.903-.463a10 10 0 0 0-.15-.607l-1.67.063 1.497-.62q-.242-.722-.576-1.407l-2.384.5 1.998-1.213a12.6 12.6 0 0 0-2.747-3.294z"/><path fill="#37474F" d="m187.062 90.454-.509-1.319 1.062 1.027q.306-.166.617-.349l-.556-.915.881.718c.328-.206.657-.426.976-.658l-.864-1.095 1.388.677a10.8 10.8 0 0 0 1.599-1.576l-1.728-1.41 2.166.816c.342-.5.621-1.04.829-1.608l-1.699-1.115 1.904.463q.119-.471.167-.955l-2.549-1.127 2.56-.151a8 8 0 0 0-.219-1.293l-1.834-.112 1.659-.497c-.32-.956-.756-1.87-1.296-2.723 0 0-2.592 10.099-8.98 14.872a23 23 0 0 0 4.426-1.67"/><path fill="#37474F" d="m186 93.313.305-.629-.113.655q.278.034.542.046l.213-.835.23.838q.375-.009.746-.063l-.118-1.387.677 1.27a5.5 5.5 0 0 0 1.457-.612l-.227-1.059.559.841q.272-.186.521-.403l-.688-1.144 1.056.792a8 8 0 0 0 .775-.91l-.613-.686.774.458q.123-.181.228-.355l-.412-.377.55.148c.327-.558.592-1.15.792-1.764-3.436 3.335-10.621 3.975-10.621 3.975 1.043.591 2.183.998 3.367 1.201"/><path fill="#37474F" d="m176.544 97.184.184-.572.075.609q.35.024.7 0l-.058-1.007.404.973a5 5 0 0 0 1.031-.27l-.156-.992.64.775q.331-.171.636-.389l-.418-.755.66.572q.234-.187.446-.397l-.576-.91 1.026.424q.201-.244.4-.526l-.49-.415.643.189c.479-.751.871-1.553 1.169-2.391 0 0-4.453 3.798-8.237 4.516.6.302 1.251.494 1.921.566M184.554 96.144l.662-.65-.392.922q.292.27.631.477l.556-.517-.288.66a3 3 0 0 0 .334.155l.619-.915-.175 1.058c.362.093.737.135 1.111.123l.34-.767.038.741q.259-.032.498-.08l.121-.752.164.683a5.8 5.8 0 0 0 1.512-.64c-4.032-.538-7.488-4.124-7.488-4.124.429 1.713 1.06 2.868 1.757 3.626"/><path fill="#ED3A56" d="M180.93 94.966a1.51 1.51 0 0 0 2.077 1.06c.274-.119.506-.315.668-.564a1.492 1.492 0 0 0-.719-2.206 1.52 1.52 0 0 0-1.82.584 1.5 1.5 0 0 0-.206 1.126"/><path fill="#000" d="M180.93 94.966a1.51 1.51 0 0 0 2.077 1.06c.274-.119.506-.315.668-.564a1.492 1.492 0 0 0-.719-2.206 1.52 1.52 0 0 0-1.82.584 1.5 1.5 0 0 0-.206 1.126" opacity=".4"/><path fill="#ED3A56" d="M181.927 93.393a1.509 1.509 0 0 0 2.076 1.063 1.492 1.492 0 0 0-.049-2.77 1.513 1.513 0 0 0-1.819.585c-.215.331-.29.735-.208 1.122"/><path fill="#000" d="M181.927 93.393a1.509 1.509 0 0 0 2.076 1.063 1.492 1.492 0 0 0-.049-2.77 1.513 1.513 0 0 0-1.819.585c-.215.331-.29.735-.208 1.122" opacity=".3"/><path fill="#ED3A56" d="M180.395 93.45a1.51 1.51 0 0 0 1.206 1.16 1.52 1.52 0 0 0 1.539-.664 1.49 1.49 0 0 0-.031-1.666 1.519 1.519 0 0 0-2.508.045 1.5 1.5 0 0 0-.206 1.126"/><path fill="#000" d="M180.395 93.45a1.51 1.51 0 0 0 1.206 1.16 1.52 1.52 0 0 0 1.539-.664 1.49 1.49 0 0 0-.031-1.666 1.519 1.519 0 0 0-2.508.045 1.5 1.5 0 0 0-.206 1.126" opacity=".2"/><path fill="#ED3A56" d="M24.22 107.641a41.2 41.2 0 0 0 2.852 14.24c1.699 4.247 12.57 8.654 15.552 11.997h-4.957s-11.583-8.211-12.53-11.903c-2.097-8.22-1.288-14.452-1.288-14.452z"/><path fill="#000" d="M24.22 107.641a41.2 41.2 0 0 0 2.852 14.24c1.699 4.247 12.57 8.654 15.552 11.997h-4.957s-11.583-8.211-12.53-11.903c-2.097-8.22-1.288-14.452-1.288-14.452z" opacity=".3"/><path fill="#ED3A56" d="m34.249 131.32.112.086h.576c.412 0 .827-.017 1.239-.037a43 43 0 0 0-1.239-.037zM35.156 129.903c.208 0 .415.014.62.026h1.419l-.15-.089h-1.27zM36.55 130.218l.62.023h.518l-.106-.069h-.412c-.207.028-.412.034-.62.046M27.783 125.695l.05.052c.247 0 .492-.015.74-.026q-.396-.019-.79-.026M26.988 124.846l.084.065h.184c.412 0 .827 0 1.238-.037a57 57 0 0 0-1.238-.034zM24.896 120.988v.052l.751-.026zM24.373 117.219l.62.025h.575l-.017-.068h-.55zM23.8 113.793a.1.1 0 0 1 0 .029l.37-.015zM24.846 116.761c.195 0 .397.014.593.023a.2.2 0 0 0 0-.046c-.204.009-.4.012-.593.023"/><path fill="#37474F" d="M27.859 101.919h-1.267l1.247.466a5 5 0 0 1-.43 1.61l-1.33-.234 1.077.712a5 5 0 0 1-.334.498l-.792-.172.541.48a6.7 6.7 0 0 1-.838.813l-.728-.486.51.657c-.6.456-1.248.845-1.933 1.161l2.794-9.752c.419.578.76 1.21 1.013 1.876l-.524.12.625.152q.108.318.196.672l-1.273.18 1.383.395q.063.424.063.852M30.762 105.847l-.576-.426.423.681q-.288.406-.668.729l-.778-.858.343 1.179a4 4 0 0 1-.513.286l-.527-.63.161.775a5.3 5.3 0 0 1-.982.235l-.515-1.213-.032 1.256c-.173 0-.351.014-.538.014l-.205-.818-.26.801a12.5 12.5 0 0 1-2.479-.438l7.739-3.346a4.3 4.3 0 0 1-.593 1.773"/><path fill="#37474F" d="M23.617 107.437a14.5 14.5 0 0 1-2.44-1.925l.75-.738-1.032.446a10 10 0 0 1-.645-.763l.749-.813-1.051.389a8 8 0 0 1-.41-.675l1.42-.946-1.788.163a7 7 0 0 1-.432-1.59l1.915-.956-1.987.166v-.426l1.109-.232-1.089-.163q.042-.515.156-1.02l1.65-.06-1.515-.473a8.4 8.4 0 0 1 1.256-2.602z"/><path fill="#37474F" d="m20.448 107.049.115-.949-.53.858q-.232-.06-.463-.129l.213-.692-.46.615a7 7 0 0 1-.753-.286l.378-.858-.804.678a7.5 7.5 0 0 1-1.31-.776l.896-1.209-1.29.889a5 5 0 0 1-.813-.921l.933-1.012-1.175.615a4.4 4.4 0 0 1-.268-.601l1.492-1.144-1.71.318a5 5 0 0 1-.07-.887l1.19-.372-1.175-.057c.05-.681.184-1.354.4-2.002 0 0 3.372 6.209 8.372 8.308a15.6 15.6 0 0 1-3.168-.386"/><path fill="#37474F" d="m21.618 108.757-.306-.363.182.415a4 4 0 0 1-.349.117l-.288-.515V109a3.5 3.5 0 0 1-.5.081l-.154-.93-.233.944a3.7 3.7 0 0 1-1.06-.163l-.028-.735-.228.646a4 4 0 0 1-.409-.18l.265-.858-.576.695a5.5 5.5 0 0 1-.654-.463l.288-.572-.435.429a5 5 0 0 1-.21-.198l.21-.317-.336.189a6 6 0 0 1-.816-1.033c2.814 1.633 7.647.881 7.647.881a7 7 0 0 1-2.01 1.341"/><path fill="#37474F" d="m28.469 109.751-.216-.355.052.412q-.227.073-.461.115l-.13-.673-.106.704q-.361.043-.723 0l-.06-.678-.289.615q-.242-.06-.475-.151l.15-.572-.34.483a4 4 0 0 1-.36-.189l.23-.692-.604.446a4 4 0 0 1-.349-.286l.25-.354-.388.231a8 8 0 0 1-1.152-1.381s3.557 1.77 6.166 1.621a3.8 3.8 0 0 1-1.195.704M23.04 110.384l-.542-.317.404.543a2.6 2.6 0 0 1-.335.417l-.449-.248.306.386q-.093.081-.194.154l-.558-.5.288.666c-.223.122-.463.21-.712.263l-.35-.449.097.495q-.174.02-.34.029l-.207-.478v.475a4 4 0 0 1-1.1-.175c2.574-1.012 4.268-3.938 4.268-3.938a5.74 5.74 0 0 1-.576 2.677"/><path fill="#ED3A56" d="M25.223 109.017a1.01 1.01 0 0 1-.599.958 1.03 1.03 0 0 1-1.12-.182 1.015 1.015 0 0 1-.261-1.097 1.02 1.02 0 0 1 1.315-.597 1.03 1.03 0 0 1 .574.531q.083.184.091.387"/><path fill="#000" d="M25.223 109.017a1.01 1.01 0 0 1-.599.958 1.03 1.03 0 0 1-1.12-.182 1.015 1.015 0 0 1-.261-1.097 1.02 1.02 0 0 1 1.315-.597 1.03 1.03 0 0 1 .574.531q.083.184.091.387" opacity=".4"/><path fill="#ED3A56" d="M24.308 108.15a1.01 1.01 0 0 1-.59.966 1.03 1.03 0 0 1-1.125-.174 1.007 1.007 0 0 1 .092-1.569 1.03 1.03 0 0 1 1.294.075c.198.182.317.434.329.702"/><path fill="#000" d="M24.308 108.15a1.01 1.01 0 0 1-.59.966 1.03 1.03 0 0 1-1.125-.174 1.007 1.007 0 0 1 .092-1.569 1.03 1.03 0 0 1 1.294.075c.198.182.317.434.329.702" opacity=".3"/><path fill="#ED3A56" d="M25.324 107.926a1.01 1.01 0 0 1-.596.96 1.03 1.03 0 0 1-1.121-.18 1.012 1.012 0 0 1 .658-1.758c.27-.009.534.088.733.272.198.183.316.437.326.706"/><path fill="#000" d="M25.324 107.926a1.01 1.01 0 0 1-.596.96 1.03 1.03 0 0 1-1.121-.18 1.012 1.012 0 0 1 .658-1.758c.27-.009.534.088.733.272.198.183.316.437.326.706" opacity=".2"/><path fill="#ED3A56" d="M192.333 109.179c-.092 4.59-1 9.129-2.684 13.405-1.601 4.004-11.831 8.142-14.639 11.288h4.668s10.904-7.722 11.808-11.2c1.987-7.744 1.213-13.602 1.213-13.602z"/><path fill="#000" d="M192.333 109.179c-.092 4.59-1 9.129-2.684 13.405-1.601 4.004-11.831 8.142-14.639 11.288h4.668s10.904-7.722 11.808-11.2c1.987-7.744 1.213-13.602 1.213-13.602z" opacity=".5"/><path fill="#ED3A56" d="m182.897 131.469-.106.083h-.556c-.389 0-.778-.017-1.152-.035.389-.02.778-.028 1.152-.034zM182.039 130.134c-.193 0-.385.015-.576.023h-1.327l.138-.083h1.189zM180.732 130.433l-.576.022h-.49a1 1 0 0 0 .101-.062h.389zM188.979 126.176l-.046.048c-.233 0-.463 0-.697-.022zM189.725 125.375a1 1 0 0 0-.06.074h-.161c-.389 0-.778-.014-1.152-.034.385-.017.774-.026 1.152-.031zM191.699 121.766v.048l-.706-.025zM192.189 118.205l-.576.02h-.536l.017-.063h.519c.196.029.383.032.576.043M192.726 114.977a.1.1 0 0 1 0 .025l-.345-.014zM191.744 117.761l-.558.02v-.043c.193.023.377.023.558.023"/><path fill="#455A64" d="M188.91 103.803h1.19l-1.172.449c.045.524.181 1.036.403 1.513l1.25-.22-1.014.672q.144.244.317.469l.743-.163-.51.452q.362.417.789.766l.686-.46-.481.621a10 10 0 0 0 1.82 1.092l-2.63-9.178a7.7 7.7 0 0 0-.953 1.765l.495.114-.59.141a7 7 0 0 0-.184.634l1.198.169-1.302.372a5 5 0 0 0-.055.792M186.178 107.504l.556-.404-.398.652q.271.384.628.69l.732-.813-.323 1.11q.233.145.484.258l.495-.593-.152.73q.452.154.924.22l.472-1.13.029 1.181c.162 0 .331.015.507.015l.193-.772.242.755c.79-.057 1.571-.194 2.333-.409l-7.278-3.146c.063.585.252 1.15.556 1.656"/><path fill="#455A64" d="M192.899 108.995a13.6 13.6 0 0 0 2.304-1.813l-.705-.695.97.42q.324-.342.608-.718l-.706-.763.994.363c.141-.215.271-.423.383-.635l-1.333-.892 1.682.154c.194-.482.331-.985.406-1.499l-1.803-.903 1.869.157v-.4l-1.046-.218 1.026-.151a7 7 0 0 0-.147-.964l-1.555-.057 1.44-.444a8 8 0 0 0-1.181-2.45z"/><path fill="#455A64" d="m195.886 108.633-.109-.895.501.801q.215-.056.435-.123l-.199-.65.432.572q.355-.113.706-.257l-.355-.806.755.632a7 7 0 0 0 1.244-.727l-.864-1.144 1.215.835a4.8 4.8 0 0 0 .764-.858l-.864-.952 1.105.572q.147-.278.254-.572l-1.403-1.09 1.607.301q.07-.415.067-.836l-1.118-.351 1.106-.052a8 8 0 0 0-.377-1.885s-3.168 5.855-7.883 7.831a14.7 14.7 0 0 0 2.981-.346"/><path fill="#455A64" d="m194.784 110.241.288-.344-.17.389q.164.065.325.112l.262-.483.015.554q.233.054.472.075l.141-.875.222.889c.338-.003.673-.055.996-.154l.026-.69.207.612q.2-.076.386-.171l-.247-.807.527.652a5 5 0 0 0 .622-.443l-.271-.52.406.403q.104-.093.199-.186l-.199-.286.317.177q.438-.442.769-.969c-2.647 1.536-7.2.826-7.2.826.56.518 1.204.937 1.907 1.239"/><path fill="#455A64" d="m188.335 111.181.204-.334-.049.388a3 3 0 0 0 .435.106l.121-.632.098.664q.34.038.679 0l.061-.638.274.572q.228-.056.446-.143l-.141-.532.32.455q.172-.08.336-.178l-.213-.652.576.421q.162-.12.329-.266l-.236-.332.365.217c.415-.39.783-.827 1.098-1.301 0 0-3.35 1.667-5.804 1.527.323.285.696.508 1.101.658M193.447 111.77l.51-.3-.383.509q.138.213.314.395l.426-.235-.288.364q.09.077.184.145l.525-.471-.274.629q.317.17.668.246l.331-.424-.092.467q.16.02.32.025l.193-.446v.449a3.8 3.8 0 0 0 1.037-.163c-2.414-.955-4.001-3.718-4.001-3.718-.03.873.152 1.74.53 2.528"/><path fill="#ED3A56" d="M191.387 110.48a.955.955 0 0 0 .562.907.97.97 0 0 0 1.059-.168.953.953 0 0 0-.091-1.479.97.97 0 0 0-1.222.074.96.96 0 0 0-.308.666"/><path fill="#000" d="M191.387 110.48a.955.955 0 0 0 .562.907.97.97 0 0 0 1.059-.168.953.953 0 0 0-.091-1.479.97.97 0 0 0-1.222.074.96.96 0 0 0-.308.666" opacity=".4"/><path fill="#ED3A56" d="M192.252 109.664a.958.958 0 0 0 .562.907.97.97 0 0 0 1.059-.169.956.956 0 0 0-.625-1.659.96.96 0 0 0-.996.921"/><path fill="#000" d="M192.252 109.664a.958.958 0 0 0 .562.907.97.97 0 0 0 1.059-.169.956.956 0 0 0-.625-1.659.96.96 0 0 0-.996.921" opacity=".3"/><path fill="#ED3A56" d="M191.296 109.468a.954.954 0 0 0 .561.903.967.967 0 0 0 1.336-.649.951.951 0 0 0-.373-.994.96.96 0 0 0-.528-.18.96.96 0 0 0-.996.92"/><path fill="#000" d="M191.296 109.468a.954.954 0 0 0 .561.903.967.967 0 0 0 1.336-.649.951.951 0 0 0-.373-.994.96.96 0 0 0-.528-.18.96.96 0 0 0-.996.92" opacity=".2"/><path fill="#263238" d="M42.416 133.878h-17.77a3.4 3.4 0 0 1-.504-.96c-.15-.538 0-1.253.556-1.499.363-.157.755-.026 1.132-.017q.083.01.16-.02a.3.3 0 0 0 .128-.098.34.34 0 0 0 .029-.248.83.83 0 0 0-.389-.421.04.04 0 0 1-.011-.016.05.05 0 0 1 0-.039.04.04 0 0 1 .011-.016.926.926 0 0 1 1.152-.026.63.63 0 0 0-.017-.738 8 8 0 0 0-.513-.649.83.83 0 0 1-.173-.618.92.92 0 0 1 .375-.549c.305-.243.83-.515 1.19-.229s.14.898.397 1.279a.42.42 0 0 0 .288.214.34.34 0 0 0 .288-.177c.089-.129.164-.286.32-.338-.044-.392-.145-.775-.182-1.167-.055-.572.072-1.295.668-1.538a.91.91 0 0 1 .729 0 .72.72 0 0 1 .374.643c.017.335-.098.664-.057.998.023.203.123.421.371.372.166-.048.32-.131.452-.243.185-.126.496-.266.689-.08.112.109.095.286.192.4q.084.079.191.115a.5.5 0 0 0 .221.028c.288 0 .576-.068.884-.042.284.019.559.1.807.237.24.133.43.339.544.586.101.212.274.712.6.492q.185-.171.287-.403c.087-.14.17-.286.262-.415.161-.256.382-.471.643-.626a1.29 1.29 0 0 1 1.607.349c.18.242.27.539.256.841-.02.346-.26.64-.288.983a.48.48 0 0 0 .187.438c.184.106.412 0 .6-.034.186-.035.515-.02.601.208a.31.31 0 0 1-.066.286c-.038.055-.087.103-.121.161-.035.057-.04.114.035.163.221.148.52.094.771.12 1.504.157 2.028 1.884 2.094 2.293"/><path fill="#455A64" d="M29.854 130.998c-.216.976-.432 1.934-.179 2.881h-.202q-.115-.28-.221-.572c-.732-.338-1.518-.066-2.29-.161a2.5 2.5 0 0 1-1.625-.848.03.03 0 0 1 .006-.035l.011-.007a.03.03 0 0 1 .025 0l.01.007c.322.263.687.469 1.078.612-.084-.098-.162-.198-.25-.286-.13-.132-.289-.243-.413-.364v-.014q.235.152.435.343.191.165.346.364c.254.074.518.111.783.108.608 0 1.285-.134 1.835.172a15 15 0 0 0-.144-.343 10.5 10.5 0 0 0-.752-1.367 9 9 0 0 1-.772-1.339 5.3 5.3 0 0 1-.368-1.43c0-.023.034-.037.04 0a6.7 6.7 0 0 0 1.037 2.337c-.141-.424-.257-.858-.435-1.264 0-.029.029-.055.043-.026.276.499.47 1.039.576 1.599l.095.145q.495.777.832 1.633a6.9 6.9 0 0 1 .225-1.801 10 10 0 0 0 .288-1.896v-.172a4.5 4.5 0 0 1-.432-2.371c0-.052.084-.054.084 0q-.011.663.097 1.318.09.439.248.858a14 14 0 0 0-.138-1.527c0-.046.063-.051.072 0a7 7 0 0 1 .055 3.446M33.803 129.685a7 7 0 0 1-.455.775q-.06.317-.179.618a2.2 2.2 0 0 1-.472.732 1.73 1.73 0 0 0-.559.821c.208.385.328.811.351 1.247h-.146c-.124-.789-.53-1.43-.893-2.154-.32-.632-.576-1.453-.268-2.139.017-.04.075 0 .066.029-.216.912.17 1.678.6 2.468.065.12.135.246.2.372.042-.158.117-.305.222-.429q.36-.374.64-.81c.366-.689.308-1.43.409-2.179 0-.043.063-.026.066 0 .055.4.055.806 0 1.207q.157-.314.357-.604l.011-.009a.03.03 0 0 1 .014-.005.03.03 0 0 1 .015.001q.008.001.013.006l.01.011.005.014v.015zM37.6 129.2a2.46 2.46 0 0 1-.474 1.064c-.185.24-.473.395-.654.635-.156.32-.328.629-.507.938s-.53.772-.366 1.164c0 .02 0 .032-.023.034.2.237.308.536.308.844h-.086c-.095-1.144-1.728-1.444-1.745-2.623 0-.054.086-.068.095-.014.12.641.625 1.001 1.08 1.416.092.089.184.18.27.286a.85.85 0 0 1 .081-.735c.182-.375.406-.729.6-1.096q.313-.57.523-1.186a4.6 4.6 0 0 0 .162-1.299c0-.026.04-.034.046 0 .152.638-.055 1.367-.306 1.965.093-.089.196-.172.288-.263.275-.342.486-.729.622-1.144a.04.04 0 0 1 .02-.02q.015-.007.029-.004.015.002.025.013a.05.05 0 0 1 .013.025"/><path fill="#455A64" d="M32.256 133.529a2.5 2.5 0 0 0-.804-.62 1.82 1.82 0 0 1-.838-1.001c0-.04-.083-.037-.078 0 .113.898 1.049 1.144 1.662 1.653.02.037.075.006.058-.032M28.18 132.96a2.45 2.45 0 0 0-.742-.821c-.39-.3-.665-.724-.778-1.201 0-.028-.057-.017-.049.015.076.428.276.826.576 1.144.311.306.654.572.948.892.023.011.057-.006.046-.029"/><path fill="#37474F" d="M29.024 129.546a.1.1 0 0 1-.05.051.12.12 0 0 1-.071.013.12.12 0 0 1-.065-.03.12.12 0 0 1-.036-.063.1.1 0 0 1 0-.026.122.122 0 0 1 .09-.151c.112-.029.196.108.132.206M40.32 132.294a.12.12 0 0 1-.052.048.13.13 0 0 1-.07.011.12.12 0 0 1-.1-.09.1.1 0 0 1 0-.026.14.14 0 0 1 0-.069.13.13 0 0 1 .09-.085c.1-.023.175.111.132.211M29.324 129.723a.083.083 0 0 0-.02-.072.1.1 0 0 0-.026-.011.1.1 0 0 0-.027 0 .1.1 0 0 0-.025.013.1.1 0 0 0-.017.021c-.032.069.046.157.106.1a.1.1 0 0 0 0-.023zM36.33 129.176a.073.073 0 0 0-.066-.037h-.017a.1.1 0 0 0-.026.008.06.06 0 0 0-.026.072c.026.071.144.08.147 0a.1.1 0 0 0 0-.026zM29.358 129.293a.05.05 0 0 0-.036-.001.05.05 0 0 0-.027.024l-.004.014.003.015q0 .016.012.028a.04.04 0 0 0 .027.015q.017.003.03-.005a.05.05 0 0 0 .02-.024.054.054 0 0 0-.026-.066M31.832 127.963a.05.05 0 0 0-.034-.002.05.05 0 0 0-.026.022l-.003.015q0 .008.003.014a.05.05 0 0 0 .006.033q.011.015.028.018.019.004.033-.006a.04.04 0 0 0 .02-.028.05.05 0 0 0-.027-.066M36.576 128.776a.05.05 0 0 0-.026.023.04.04 0 0 0-.003.034s0 .017.017.023q.013.01.028.01a.05.05 0 0 0 .045-.033.05.05 0 0 0 0-.029.05.05 0 0 0-.025-.026.05.05 0 0 0-.036-.002"/><path fill="#263238" d="M200.007 133.878h-17.77a3.2 3.2 0 0 1-.51-.961c-.149-.538 0-1.253.553-1.499.366-.157.758-.026 1.132-.017a.31.31 0 0 0 .288-.117.32.32 0 0 0 .026-.249c-.046-.192-.233-.315-.386-.421a.04.04 0 0 1-.012-.015.1.1 0 0 1-.005-.02q0-.01.005-.02a.1.1 0 0 1 .012-.016.93.93 0 0 1 1.152-.026.62.62 0 0 0-.017-.738c-.135-.243-.357-.423-.513-.649a.83.83 0 0 1-.172-.609.93.93 0 0 1 .374-.549c.305-.243.832-.515 1.192-.229s.141.898.395 1.278a.42.42 0 0 0 .305.215.33.33 0 0 0 .168-.051.33.33 0 0 0 .12-.126c.092-.129.164-.286.32-.338-.041-.392-.144-.775-.182-1.167-.054-.572.075-1.295.669-1.538a.9.9 0 0 1 .728 0 .724.724 0 0 1 .377.643c.015.335-.1.664-.06.998.026.203.127.421.371.372.168-.048.323-.131.456-.243.181-.126.495-.266.685-.08.112.108.098.286.196.4a.52.52 0 0 0 .409.143c.288 0 .576-.068.884-.043.284.02.56.101.809.238.239.133.428.339.542.586.1.212.288.712.599.492q.185-.173.288-.403c.083-.14.167-.286.259-.415a1.94 1.94 0 0 1 .642-.626 1.29 1.29 0 0 1 1.61.349c.18.242.269.539.253.84-.02.346-.256.641-.27.984a.46.46 0 0 0 .187.438c.181.106.409 0 .596-.035.187-.034.519-.02.602.209a.3.3 0 0 1 .005.151.3.3 0 0 1-.068.135c-.041.055-.09.103-.124.16-.035.058-.038.115.037.163.219.149.519.095.769.121 1.483.148 2.005 1.876 2.074 2.285"/><path fill="#455A64" d="M187.444 130.998c-.219.976-.432 1.934-.179 2.88h-.204q-.111-.279-.222-.572c-.729-.337-1.518-.065-2.304-.16a2.5 2.5 0 0 1-1.627-.843.04.04 0 0 1-.004-.023.04.04 0 0 1 .01-.02.04.04 0 0 1 .021-.009q.012 0 .022.006c.32.263.683.47 1.074.612-.081-.097-.158-.198-.248-.286-.129-.132-.288-.243-.414-.363v-.015q.236.15.437.344.19.16.34.357.385.112.787.109c.604 0 1.284-.135 1.831.171q-.068-.172-.144-.343a10 10 0 0 0-.749-1.361 9.5 9.5 0 0 1-.774-1.339 5.4 5.4 0 0 1-.366-1.43c0-.023.035-.037.037 0a6.7 6.7 0 0 0 1.037 2.337c-.141-.423-.256-.858-.435-1.264 0-.029.032-.055.046-.026.276.499.471 1.039.576 1.599q.049.072.093.146.493.777.835 1.633a6.9 6.9 0 0 1 .222-1.802 10 10 0 0 0 .288-1.896v-.172a4.5 4.5 0 0 1-.432-2.371.04.04 0 0 1 .015-.023.044.044 0 0 1 .053 0 .04.04 0 0 1 .015.023q-.012.664.098 1.319.09.438.248.858a15 15 0 0 0-.141-1.528c0-.045.063-.051.074 0a7 7 0 0 1 .084 3.452M191.392 129.685a8 8 0 0 1-.455.775 3.3 3.3 0 0 1-.181.618c-.108.272-.268.52-.47.732a1.76 1.76 0 0 0-.576.821c.209.384.33.81.352 1.247h-.144c-.127-.789-.53-1.43-.896-2.154-.32-.632-.576-1.453-.268-2.139.02-.04.078 0 .069.029-.219.912.17 1.678.599 2.468q.1.182.199.372c.041-.159.118-.305.225-.429q.356-.376.639-.81c.366-.689.305-1.43.409-2.179 0-.043.06-.026.066 0 .055.4.055.806 0 1.207q.156-.316.357-.604a.04.04 0 0 1 .028-.019.04.04 0 0 1 .033.005.04.04 0 0 1 .019.027.04.04 0 0 1-.005.033M195.192 129.199a2.5 2.5 0 0 1-.476 1.064c-.187.24-.475.395-.656.635-.153.32-.328.629-.504.938s-.53.772-.366 1.164c0 .02 0 .032-.026.035.2.236.31.535.311.843h-.086c-.095-1.144-1.728-1.444-1.748-2.622 0-.055.086-.069.098-.015.121.641.625 1.001 1.077 1.416q.144.135.27.286c-.042-.121-.056-.25-.042-.377a.9.9 0 0 1 .126-.358c.181-.375.403-.729.596-1.095q.318-.57.524-1.187c.12-.42.177-.854.17-1.29 0-.026.04-.034.049 0 .15.638-.055 1.367-.308 1.965.095-.089.196-.172.288-.263.273-.342.484-.73.622-1.144a.1.1 0 0 1 .018-.017.1.1 0 0 1 .024-.004.04.04 0 0 1 .023.008.1.1 0 0 1 .016.018"/><path fill="#455A64" d="M198.49 132.631c-.389.057-.767.148-1.152.168a5.8 5.8 0 0 1-1.207-.06 5.8 5.8 0 0 0-1.475-.14q.224-.095.432-.22a2.65 2.65 0 0 0 1.086-1.253c.017-.051-.055-.068-.081-.034a6 6 0 0 1-.694.844 4.5 4.5 0 0 1-1.042.623c-.281.124-.529.31-.726.544-.049.065-.288.403-.144.474l.013.003.013-.003.004-.005.002-.006-.002-.006-.004-.005c-.035 0 .259-.407.262-.409q.166-.167.369-.286.1-.06.204-.112c.665-.126 1.348.114 2.016.192a4.54 4.54 0 0 0 2.169-.195l.02-.012a.1.1 0 0 0 .014-.02l.006-.023a.1.1 0 0 0-.004-.023.1.1 0 0 0-.013-.021.1.1 0 0 0-.019-.014.1.1 0 0 0-.024-.005.1.1 0 0 0-.023.004M189.835 133.529a2.5 2.5 0 0 0-.801-.62 1.83 1.83 0 0 1-.841-1.001c0-.04-.08-.037-.075 0 .11.898 1.046 1.144 1.659 1.653.032.037.084.006.058-.032M185.76 132.96a2.5 2.5 0 0 0-.746-.821 3 3 0 0 1-.426-.437 3 3 0 0 1-.352-.764c0-.028-.057-.017-.049.015.079.428.279.824.576 1.144.314.306.654.572.951.892.046.011.066-.006.046-.029"/><path fill="#37474F" d="M186.623 129.546a.118.118 0 0 1-.219-.029v-.026a.1.1 0 0 1 0-.065.117.117 0 0 1 .089-.086c.101-.029.176.108.13.206M197.896 132.294a.1.1 0 0 1-.05.048.12.12 0 0 1-.07.012.12.12 0 0 1-.099-.092v-.025a.13.13 0 0 1 .032-.125.12.12 0 0 1 .058-.03.15.15 0 0 1 .074.016q.033.019.055.051a.14.14 0 0 1 0 .145M186.911 129.723a.1.1 0 0 0 .001-.038.1.1 0 0 0-.018-.034h-.017a.1.1 0 0 0-.025-.011.1.1 0 0 0-.027 0 .1.1 0 0 0-.024.013.05.05 0 0 0-.016.021c-.032.069.046.157.103.1a.1.1 0 0 0 .018-.023zM193.921 129.176a.071.071 0 0 0-.063-.037h-.035a.1.1 0 0 0-.026.008.1.1 0 0 0-.019.019.1.1 0 0 0-.008.026.1.1 0 0 0 .004.027c.026.071.144.08.144 0a.1.1 0 0 0 0-.026zM186.947 129.293a.05.05 0 0 0-.035-.001.04.04 0 0 0-.026.024l-.003.014q0 .008.003.014a.04.04 0 0 0 .008.033.04.04 0 0 0 .028.017q.018.003.033-.007a.05.05 0 0 0 .018-.028.05.05 0 0 0 0-.038.05.05 0 0 0-.026-.028M189.423 127.963a.05.05 0 0 0-.035-.002.05.05 0 0 0-.026.022l-.003.015q0 .007.003.014 0 .016.01.03a.05.05 0 0 0 .028.016q.015.003.031-.005a.05.05 0 0 0 .021-.024.06.06 0 0 0-.002-.038.06.06 0 0 0-.027-.028M194.149 128.776c-.026 0-.032.031-.029.057l.006.013.011.01a.05.05 0 0 0 .06.006.04.04 0 0 0 .018-.026.05.05 0 0 0-.003-.032.05.05 0 0 0-.026-.026.05.05 0 0 0-.037-.002M15.992 133.879H28.15c.151-.204.267-.432.342-.675a.85.85 0 0 0-.377-1.024 1.8 1.8 0 0 0-.775 0 .21.21 0 0 1-.207-.08.24.24 0 0 1-.017-.171.55.55 0 0 1 .265-.286l.008-.011.003-.014-.003-.013-.008-.011a.63.63 0 0 0-.784-.02.43.43 0 0 1 0-.503c.093-.166.242-.286.349-.444a.57.57 0 0 0 .118-.417.64.64 0 0 0-.256-.378c-.208-.163-.576-.349-.813-.154-.236.194-.098.615-.273.875a.293.293 0 0 1-.207.146.235.235 0 0 1-.19-.123c-.061-.086-.113-.192-.22-.229.03-.269.098-.529.124-.798.038-.386-.049-.886-.455-1.052a.63.63 0 0 0-.498 0 .5.5 0 0 0-.26.44c0 .229.07.455.041.684-.017.14-.083.286-.253.254a.9.9 0 0 1-.311-.166c-.124-.085-.337-.18-.47-.054-.075.074-.066.192-.132.272a.4.4 0 0 1-.133.081q-.076.024-.155.016c-.205 0-.4-.046-.605-.029a1.34 1.34 0 0 0-.553.163.9.9 0 0 0-.371.401c-.07.146-.188.489-.41.337a.8.8 0 0 1-.204-.286 6 6 0 0 0-.178-.286 1.26 1.26 0 0 0-.41-.409.88.88 0 0 0-1.1.238.9.9 0 0 0-.172.572c0 .237.175.437.187.675a.33.33 0 0 1-.13.286c-.127.074-.288 0-.409-.023-.12-.023-.354-.015-.412.143a.22.22 0 0 0 .044.2c.028.037.06.069.086.109s.026.077-.026.111c-.166.07-.347.098-.527.083-1.017.109-1.374 1.29-1.42 1.57"/><path fill="#455A64" d="M24.586 131.908c.15.669.288 1.324.12 1.97h.142q.076-.19.15-.386c.5-.232 1.039-.046 1.566-.109.43-.045.828-.249 1.115-.572a.02.02 0 0 0 .002-.015.025.025 0 0 0-.021-.021.03.03 0 0 0-.016.002 2.4 2.4 0 0 1-.734.426c.054-.066.11-.134.17-.194s.187-.166.288-.249q-.156.102-.288.234a1.5 1.5 0 0 0-.234.244q-.264.075-.538.074c-.415 0-.864-.092-1.253.117q.047-.117.098-.234a7 7 0 0 1 .478-.953 6 6 0 0 0 .53-.915c.128-.313.212-.642.25-.978 0-.017-.023-.026-.026 0a4.6 4.6 0 0 1-.708 1.599c.095-.286.173-.572.288-.858 0-.02-.02-.038-.032-.017-.19.341-.325.709-.4 1.092q-.033.052-.066.1a7 7 0 0 0-.576 1.116 4.6 4.6 0 0 0-.153-1.23 7 7 0 0 1-.201-1.299v-.117a3.05 3.05 0 0 0 .288-1.622.04.04 0 0 0-.01-.014.03.03 0 0 0-.018-.005.03.03 0 0 0-.017.005.04.04 0 0 0-.01.014 5 5 0 0 1-.07.904 4 4 0 0 1-.17.572q.022-.526.099-1.047c0-.031-.044-.034-.052 0a4.8 4.8 0 0 0 .008 2.366M21.887 131.01q.14.275.311.532.043.217.124.423c.075.185.185.355.323.5.181.15.314.349.383.572a2 2 0 0 0-.242.858h.1a5.1 5.1 0 0 1 .611-1.473c.22-.431.4-.995.185-1.461 0-.029-.052 0-.046.017.15.626-.116 1.144-.41 1.687l-.138.258a.74.74 0 0 0-.152-.286 3.7 3.7 0 0 1-.44-.578c-.252-.472-.211-.984-.289-1.493 0-.028-.043-.017-.046 0a3 3 0 0 0 0 .827 3.5 3.5 0 0 0-.245-.415l-.012.001-.01.007a.03.03 0 0 0-.007.024M19.295 130.678c.047.265.158.514.325.726.127.166.323.286.447.438.106.217.227.429.345.64s.363.527.25.795c0 .015 0 .023.018.023a.9.9 0 0 0-.213.572h.06c.067-.781 1.187-.986 1.196-1.793a.04.04 0 0 0-.013-.018.04.04 0 0 0-.02-.006.04.04 0 0 0-.021.006.04.04 0 0 0-.012.018c-.084.438-.427.684-.738.967q-.097.09-.184.191a.57.57 0 0 0-.058-.503c-.123-.255-.288-.498-.409-.746a5 5 0 0 1-.357-.813 3 3 0 0 1-.118-.883l-.006-.008a.02.02 0 0 0-.02 0l-.005.008c-.07.458.004.927.21 1.344-.064-.06-.136-.118-.193-.18-.186-.235-.33-.5-.424-.784a.034.034 0 0 0-.032-.02.04.04 0 0 0-.018.008.03.03 0 0 0-.01.018"/><path fill="#455A64" d="M17.031 133.027c.265.037.521.1.792.114q.415.023.827-.04c.33-.075.669-.107 1.008-.094a3 3 0 0 1-.288-.152 1.8 1.8 0 0 1-.743-.858c0-.034.034-.049.054-.023q.211.309.476.572.327.265.714.432c.192.084.361.211.495.372.035.046.202.286.101.323h-.017v-.014s-.179-.286-.182-.286a1.3 1.3 0 0 0-.25-.189 2 2 0 0 0-.141-.074c-.455-.089-.92.077-1.371.131a3.1 3.1 0 0 1-1.483-.134.04.04 0 0 1-.028-.015.04.04 0 0 1-.008-.03.04.04 0 0 1 .014-.027.04.04 0 0 1 .03-.008M22.95 133.641c.15-.178.337-.323.547-.426.27-.15.476-.393.576-.684 0-.026.055-.026.052 0-.075.615-.717.792-1.135 1.144-.023.011-.057-.011-.04-.034M25.73 133.252c.124-.226.298-.422.51-.572q.159-.128.287-.286a2 2 0 0 0 .247-.535q.005-.006.012-.005.008 0 .013.005a.02.02 0 0 1 .005.012 1.53 1.53 0 0 1-.4.778c-.214.211-.447.389-.649.612-.008.017-.031.005-.026-.009M25.153 130.915q.012.021.035.032t.048.008a.1.1 0 0 0 .044-.02.1.1 0 0 0 .026-.04v-.018a.1.1 0 0 0 0-.048.1.1 0 0 0-.023-.037.1.1 0 0 0-.038-.02c-.078-.018-.13.077-.092.143"/><path fill="#455A64" d="M17.435 132.794q.013.022.036.033.022.011.047.007a.1.1 0 0 0 .044-.019.1.1 0 0 0 .026-.041v-.017a.1.1 0 0 0 0-.049.08.08 0 0 0-.06-.057c-.078-.02-.13.075-.093.143M24.95 131.036a.07.07 0 0 1 0-.052.04.04 0 0 1 .016-.008.03.03 0 0 1 .018 0 .04.04 0 0 1 .017.008.04.04 0 0 1 .011.015c.023.045-.031.108-.072.068v-.014zM20.16 130.664a.045.045 0 0 1 .043-.025q.01 0 .019.005t.014.014a.04.04 0 0 1 .002.038c-.018.049-.098.054-.098 0a.04.04 0 0 1 0-.017zM24.927 130.744l.011-.004.013.002.01.006.007.01.003.011-.003.01a.034.034 0 0 1-.03.023.03.03 0 0 1-.02-.007.03.03 0 0 1-.012-.016.04.04 0 0 1 .006-.02.03.03 0 0 1 .015-.015M19.999 130.389a.04.04 0 0 1 .018.016.04.04 0 0 1 .002.025.02.02 0 0 1 0 .014.032.032 0 0 1-.041.005.03.03 0 0 1-.011-.04.03.03 0 0 1 .013-.014.03.03 0 0 1 .019-.006M84.85 133.879H71.864a2.4 2.4 0 0 1-.366-.71c-.112-.392 0-.912.403-1.092.268-.118.553-.02.827-.015a.228.228 0 0 0 .222-.085.25.25 0 0 0 .02-.183.6.6 0 0 0-.288-.306l-.009-.012-.003-.014q0-.008.003-.014l.009-.012a.67.67 0 0 1 .838-.02.46.46 0 0 0 0-.54c-.1-.175-.262-.306-.374-.472a.62.62 0 0 1-.127-.447.7.7 0 0 1 .273-.403c.225-.174.608-.374.864-.163.257.212.104.655.288.933a.3.3 0 0 0 .222.157.239.239 0 0 0 .202-.132c.069-.094.12-.206.236-.246-.032-.286-.107-.572-.132-.858-.04-.412.051-.946.486-1.124a.66.66 0 0 1 .533 0 .53.53 0 0 1 .288.469c0 .246-.072.487-.04.73.017.151.089.309.27.286a.95.95 0 0 0 .332-.18c.132-.092.362-.195.5-.058.084.08.073.206.145.286a.372.372 0 0 0 .288.103c.216 0 .426-.048.645-.031.207.014.409.074.59.174a.96.96 0 0 1 .398.429c.072.158.198.521.437.361a.9.9 0 0 0 .216-.286c.064-.103.124-.206.19-.304a1.4 1.4 0 0 1 .473-.457.936.936 0 0 1 1.175.254.94.94 0 0 1 .184.612c-.014.255-.187.469-.198.721a.35.35 0 0 0 .138.32c.132.078.288 0 .435-.025.146-.026.38-.015.44.151a.23.23 0 0 1-.046.215 1 1 0 0 0-.09.117c-.037.057-.028.083.027.12.177.075.37.104.561.086 1.072.103 1.452 1.364 1.5 1.665"/><path fill="#37474F" d="M75.672 131.773c-.159.712-.317 1.413-.13 2.105h-.15c-.054-.137-.109-.286-.16-.412-.537-.249-1.112-.049-1.674-.117a1.84 1.84 0 0 1-1.19-.618.03.03 0 0 1-.007-.017q0-.01.007-.017a.02.02 0 0 1 .018-.007q.01 0 .017.007c.233.193.5.345.786.446-.06-.069-.118-.143-.181-.206s-.202-.177-.303-.266q.171.111.317.252.139.117.25.26.283.081.577.08c.443 0 .939-.1 1.339.126l-.104-.252a8 8 0 0 0-.55-.995 7 7 0 0 1-.576-.978 4 4 0 0 1-.268-1.047c0-.017.026-.026.03 0 .14.615.396 1.197.757 1.716-.104-.309-.188-.624-.317-.924 0-.023.02-.04.032-.02.204.365.349.76.429 1.17l.069.106q.36.568.608 1.192c-.005-.443.05-.886.164-1.315q.174-.684.216-1.387v-.126a3.3 3.3 0 0 1-.314-1.731c0-.037.06-.04.06 0q-.009.486.072.964.065.32.182.624-.023-.563-.104-1.118c0-.032.046-.038.055 0a5.1 5.1 0 0 1 .043 2.505M78.557 130.812q-.147.297-.334.572a2.3 2.3 0 0 1-.13.452q-.121.3-.345.535a1.27 1.27 0 0 0-.41.6c.154.281.241.591.257.91h-.107a5.4 5.4 0 0 0-.653-1.573c-.234-.463-.427-1.064-.196-1.564.014-.029.057 0 .049.02-.159.669.126 1.229.438 1.804.048.089.1.18.146.286a.8.8 0 0 1 .165-.317q.262-.272.466-.589c.268-.504.225-1.05.288-1.593 0-.032.046-.018.05 0 .04.293.04.59 0 .883a3 3 0 0 1 .275-.46.03.03 0 0 1 .022-.002.04.04 0 0 1 .017.014.03.03 0 0 1 .002.022M81.333 130.462a1.8 1.8 0 0 1-.348.775c-.136.177-.346.286-.478.466-.113.234-.242.46-.369.686s-.389.572-.268.858c0 .015 0 .023-.017.023a.97.97 0 0 1 .225.618h-.064c-.069-.835-1.264-1.055-1.276-1.916 0-.04.064-.052.07 0 .089.469.457.732.788 1.035q.105.096.2.203a.61.61 0 0 1 .06-.535c.132-.286.288-.532.435-.8a5 5 0 0 0 .383-.858c.088-.307.13-.625.126-.944 0-.02.03-.023.032 0a2.4 2.4 0 0 1-.222 1.43c.07-.066.141-.126.205-.192.201-.251.356-.535.455-.841a.04.04 0 0 1 .01-.017.04.04 0 0 1 .019-.008.03.03 0 0 1 .02.003.04.04 0 0 1 .014.014"/><path fill="#37474F" d="M77.42 133.623a1.8 1.8 0 0 0-.576-.454 1.34 1.34 0 0 1-.613-.73c0-.028-.06-.028-.055 0 .08.658.763.858 1.213 1.21.011.023.049 0 .031-.026M74.448 133.204a1.8 1.8 0 0 0-.544-.601 2 2 0 0 1-.311-.32 2 2 0 0 1-.257-.558l-.007-.009-.011-.003-.012.003-.007.009c.058.312.206.6.426.83.228.226.478.415.694.655.012.028.038.014.029-.006M75.063 130.713a.1.1 0 0 1-.036.037.1.1 0 0 1-.051.009.1.1 0 0 1-.048-.021.1.1 0 0 1-.026-.045v-.02a.1.1 0 0 1-.005-.026.1.1 0 0 1 .005-.025.1.1 0 0 1 .023-.039.1.1 0 0 1 .04-.022c.084-.02.139.069.098.152M83.31 132.721a.1.1 0 0 1-.038.037q-.025.012-.052.008a.084.084 0 0 1-.072-.068v-.017a.1.1 0 0 1 0-.052.1.1 0 0 1 .025-.04.1.1 0 0 1 .041-.022.1.1 0 0 1 .054.011.11.11 0 0 1 .055.09.1.1 0 0 1-.014.053M75.283 130.842a.05.05 0 0 0-.014-.052.04.04 0 0 0-.018-.008.04.04 0 0 0-.02.001.03.03 0 0 0-.017.009.04.04 0 0 0-.011.015c-.023.049.034.115.077.072v-.014zM80.403 130.444a.1.1 0 0 0-.02-.019.1.1 0 0 0-.026-.007h-.005a.03.03 0 0 0-.02.006l-.013.013a.1.1 0 0 0-.007.019q-.001.01.002.019c.02.052.107.057.107 0a.04.04 0 0 0 0-.02zM75.31 130.53a.04.04 0 0 0-.047.015l-.002.01q0 .006.002.01a.04.04 0 0 0 .012.019.04.04 0 0 0 .021.007.04.04 0 0 0 .021-.007.04.04 0 0 0 .013-.019.04.04 0 0 0-.005-.02.1.1 0 0 0-.015-.015M77.118 129.558a.04.04 0 0 0-.026-.002.04.04 0 0 0-.02.016.1.1 0 0 0 0 .021.04.04 0 0 0 .012.018.03.03 0 0 0 .021.007.03.03 0 0 0 .021-.007.04.04 0 0 0 .013-.018.04.04 0 0 0-.005-.021.04.04 0 0 0-.016-.014M80.57 130.149a.04.04 0 0 0-.018.018.04.04 0 0 0-.002.025l.005.01.01.008a.03.03 0 0 0 .02.012q.013.003.024-.005a.03.03 0 0 0 .013-.021.03.03 0 0 0-.006-.024.04.04 0 0 0-.019-.019.04.04 0 0 0-.027-.004"/><path fill="#ED3A56" d="M106.75 70.3H38.036v31.329h68.714z"/><path fill="#fff" d="M106.75 70.3H38.036v31.329h68.714z" opacity=".6"/><path fill="#ED3A56" d="M106.747 70.3v31.364h-1.981l-.657-28.114-66.073.64v-3.855h64.832v-.034z" opacity=".6"/><path fill="#ED3A56" d="M106.75 73.432H38.036v.071h68.714zM106.75 76.565H38.036v.071h68.714zM106.75 79.7H38.036v.07h68.714zM106.75 82.83H38.036v.072h68.714zM106.75 85.96H38.036v.072h68.714zM106.75 89.098H38.036v.071h68.714zM106.75 92.229H38.036v.071h68.714zM106.75 95.363H38.036v.072h68.714zM106.75 98.496H38.036v.072h68.714z"/><path fill="#fff" d="M109.002 70.3H33.454v2.232h75.548z"/><path fill="#EBEBEB" d="M109.002 71.78H33.454v.751h75.548z"/><path fill="#A6A6A6" d="m109.002 72.53-75.548.07h-.07v-2.371h.073l75.548.071zm0 0V70.3l-75.548.069.072-.072v2.231l-.07-.069z"/><path fill="#fff" d="M105.623 72.535v29.098h2.246V72.535z"/><path fill="#EBEBEB" d="M107.115 72.531v29.098h.758V72.531z"/><path fill="#fff" d="M36.912 72.531v29.098h2.246V72.531z"/><path fill="#EBEBEB" d="M38.402 72.531v29.098h.758V72.531z"/><path fill="#A6A6A6" d="m39.167 101.629-2.246.02h-.02v-.02c-.03-2.425-.02-4.862-.032-7.273l-.017-7.276.011-7.273c0-2.425.023-4.862.046-7.276q.04 3.637.046 7.276l.023 7.273v7.276c-.014 2.422 0 4.848-.034 7.273l-.02-.02z"/><path fill="#fff" d="M103.162 75.56H74.033v23.613h29.129z"/><path fill="#37474F" d="M101.445 77.266H75.75v20.203h25.695z"/><path fill="#455A64" d="M101.445 86.686v4.35l-6.478 6.432h-4.38zM96.129 77.268l-20.344 20.2h-.035v-4.316l16.001-15.884zM77.648 77.268 75.75 79.15v-.518l1.374-1.364zM101.444 92.586v.515l-4.397 4.367h-.519zM90.366 77.268 75.75 91.785v-.52l14.092-13.997zM101.445 80.68v1.527l-15.368 15.26h-1.54zM83.88 77.268l-8.13 8.07v-1.53l6.587-6.54z"/><path fill="#fff" d="M84.796 77.266h-1.717v20.203h1.717zM94.119 77.266h-1.717v20.203h1.717zM70.752 75.56H41.624v23.613h29.128z"/><path fill="#37474F" d="M69.036 77.266H43.341v20.203h25.695z"/><path fill="#455A64" d="M69.036 86.686v4.35l-6.477 6.432h-4.38zM63.72 77.268l-20.342 20.2h-.037v-4.316l16.001-15.884zM45.239 77.268 43.34 79.15v-.518l1.374-1.364zM69.036 92.586v.515l-4.398 4.367h-.518zM57.957 77.268 43.34 91.785v-.52l14.094-13.997zM69.036 80.68v1.527L53.67 97.467h-1.541zM51.471 77.268l-8.13 8.07v-1.53l6.59-6.54z"/><path fill="#fff" d="M52.386 77.266H50.67v20.203h1.716zM61.707 77.266H59.99v20.203h1.717z"/><path fill="#ED3A56" d="M109.756 70.301H34.62l1.898-28.797h71.341z"/><path fill="#000" d="M109.756 70.301H34.62l1.898-28.797h71.341z" opacity=".4"/><path fill="#000" d="M101.635 41.504 99.101 70.3h10.656l-1.898-28.797z" opacity=".1"/><g fill="#000" opacity=".2"><path d="M71.691 47.156h-35.55v.215h35.55zM76.729 47.156h-2.422v.215h2.422zM108.238 47.156h-29.22v.215h29.22zM95.004 52.914H35.76v.215h59.244zM108.619 52.914h-10.99v.215h10.99zM39.416 58.676H35.38v.214h4.035zM80.335 58.676h-37.84v.214h37.84zM108.999 58.676H82.883v.214h26.116zM85.057 64.434H35v.214h50.057zM89.527 64.434H87.28v.214h2.247zM109.376 64.434h-17.56v.214h17.56z"/></g><path fill="#ED3A56" d="M182.546 70.301h-80.381l3.036-46.074h74.309z"/><path fill="#000" d="M182.546 70.301h-80.381l3.036-46.074h74.309z" opacity=".4"/><g fill="#000" opacity=".2"><path d="M126.412 29.879H104.82v.214h21.592zM179.89 29.879h-49.933v.214h49.933zM154.975 35.639h-50.536v.214h50.536zM162.624 35.639h-3.709v.214h3.709zM180.271 35.639h-15.365v.214h15.365zM180.65 41.398h-76.588v.215h76.588zM109.757 47.158h-6.074v.215h6.074zM181.027 47.158h-68.371v.215h68.371zM181.408 52.916h-78.105v.215h78.105zM172.586 58.68h-69.664v.214h69.664zM181.785 58.68h-5.976v.214h5.976zM182.165 64.436h-79.623v.214h79.623z"/></g><path fill="#ED3A56" d="M106.75 70.301h71.211l-35.606-35.178z"/><path fill="#fff" d="M106.75 70.301h71.211l-35.606-35.178z" opacity=".6"/><path fill="#ED3A56" d="M145.348 38.043h-5.988v.072h5.988zM148.516 41.178h-12.327v.071h12.327zM151.687 44.309h-18.666v.071h18.666zM154.86 47.441h-25.012v.072h25.012zM158.028 50.576h-31.351v.072h31.351zM161.199 53.707h-37.69v.072h37.69zM164.367 56.838h-44.029v.071h44.029zM167.544 59.973h-50.377v.071h50.377zM170.712 63.106h-56.716v.071h56.716zM173.88 66.236h-63.055v.072h63.055zM177.051 69.371h-69.394v.072h69.394z"/><path fill="#ED3A56" d="M106.75 70.301h5.014l31.487-30.733L174.465 70.3h3.496l-35.606-35.178z" opacity=".6"/><path fill="#fff" d="M150.267 58.98c.703-4.336-2.268-8.417-6.635-9.115s-8.477 2.252-9.18 6.589 2.268 8.418 6.635 9.116c4.368.698 8.477-2.252 9.18-6.59"/><path fill="#37474F" d="M148.509 58.726c.566-3.38-1.734-6.575-5.138-7.137s-6.62 1.723-7.186 5.102 1.734 6.575 5.137 7.137c3.404.562 6.621-1.722 7.187-5.102"/><path fill="#455A64" d="m148.584 57.272-6.673 6.624a6.16 6.16 0 0 1-3.214-1.144l8.721-8.654a6.1 6.1 0 0 1 1.166 3.174M146.782 53.338l-8.83 8.774a4 4 0 0 1-.254-.269l8.819-8.757c.089.083.181.169.265.252M142.131 51.52l-6.017 5.971a6.1 6.1 0 0 1 .366-1.893l3.744-3.718a6.1 6.1 0 0 1 1.907-.36"/><path fill="#fff" d="M148.608 57.714c0 .125 0 .254-.015.38a4 4 0 0 1-.046.472h-12.384a4 4 0 0 1-.046-.472v-.38q0-.432.061-.858h12.384a6 6 0 0 1 .046.858"/><path fill="#EBEBEB" d="M148.587 58.094a4 4 0 0 1-.046.472h-12.384a4 4 0 0 1-.046-.472z"/><path fill="#fff" d="M143.213 51.573v12.28q-.236.039-.475.046a3 3 0 0 1-.386.017 6 6 0 0 1-.864-.062V51.573a6 6 0 0 1 .864-.063c.133 0 .259 0 .386.017q.239.007.475.046"/><path fill="#EBEBEB" d="M143.213 58.094v5.76a4 4 0 0 1-.475.046v-5.806zM143.213 51.573v5.288h-.475v-5.334q.24.007.475.046"/><path fill="#fff" d="m178.234 72.272-35.879-35.45-35.876 35.45-1.713-1.71 37.589-37.14 37.593 37.14z"/><path fill="#EBEBEB" d="m106.479 72.272-.858-.855 36.478-36.042 36.844 36.19-.708.707-35.879-35.45z"/><path fill="#ED3A56" d="M176.475 19.402h-9.392v12.53h9.392z"/><path fill="#fff" d="M176.475 19.402h-9.392v12.53h9.392z" opacity=".6"/><path fill="#ED3A56" d="M174.677 15.875h-5.411v3.526h5.411z"/><path fill="#fff" d="M174.677 15.875h-5.411v3.526h5.411z" opacity=".6"/><path fill="#ED3A56" d="M169.266 15.875h-2.18v3.526h2.18z"/><path fill="#fff" d="M169.266 15.875h-2.18v3.526h2.18z" opacity=".3"/><path fill="#ED3A56" d="M176.475 22.5h-9.389v.072h9.389zM176.475 25.633h-9.389v.071h9.389zM176.475 28.766h-9.389v.071h9.389zM167.083 19.402h-2.178v10.5l2.178 2.033z"/><path fill="#fff" d="M167.083 19.402h-2.178v10.5l2.178 2.033z" opacity=".3"/><path fill="#ED3A56" d="M167.084 22.5h-2.178v.072h2.178zM167.084 25.633h-2.178v.071h2.178zM167.084 28.766h-2.178v.071h2.178zM176.126 105.668h-39.038v25.574h39.038z"/><path fill="#000" d="M176.126 105.668h-39.038v25.574h39.038z" opacity=".4"/><path fill="#ED3A56" d="M140.609 105.668v25.574h2.247v-25.574z"/><path fill="#000" d="M140.609 105.668v25.574h2.247v-25.574z" opacity=".3"/><path fill="#000" d="M142.1 105.67v25.574h.757V105.67z" opacity=".3"/><path fill="#ED3A56" d="M169.237 105.668v25.574h2.247v-25.574z"/><path fill="#000" d="M169.237 105.668v25.574h2.247v-25.574z" opacity=".3"/><path fill="#000" d="M170.723 105.67v25.574h.757V105.67z" opacity=".3"/><path fill="#ED3A56" d="M176.126 131.244h-39.038v1.748h39.038z"/><path fill="#fff" d="M176.126 131.244h-39.038v1.748h39.038z" opacity=".3"/><path fill="#ED3A56" d="M176.126 132.992h-39.038v.872h39.038z"/><path fill="#000" d="M176.126 132.992h-39.038v.872h39.038z" opacity=".4"/><path fill="#ED3A56" d="M170.358 133.864h-27.502l3.036-.872h21.43z"/><path fill="#fff" d="M170.358 133.864h-27.502l3.036-.872h21.43z" opacity=".3"/><path fill="#ED3A56" d="M177.964 70.3H106.75v31.329h71.214z"/><path fill="#fff" d="M177.964 70.3H106.75v31.329h71.214z" opacity=".6"/><path fill="#ED3A56" d="M106.75 70.3h71.214v3.155l-71.214.704z" opacity=".6"/><path fill="#ED3A56" d="M177.964 73.398H106.75v.072h71.214zM177.964 76.533H106.75v.072h71.214zM177.964 79.664H106.75v.072h71.214zM177.964 82.797H106.75v.071h71.214zM177.964 85.932H106.75v.071h71.214zM177.964 89.063H106.75v.071h71.214zM177.964 92.197H106.75v.072h71.214zM177.964 95.328H106.75v.072h71.214zM177.964 98.46H106.75v.072h71.214z"/><path fill="#fff" d="M127.748 75.56h-16.759v26.069h16.759z"/><path fill="#ED3A56" d="M126.083 77.266h-13.427v24.364h13.427z"/><path fill="#37474F" d="M118.599 78.836h-4.309v19.45h4.309zM124.453 78.836h-4.308v19.45h4.308z"/><path fill="#455A64" d="m114.287 94.214 4.309-4.278v4.35l-4.032 4.004h-.277zM124.453 84.121v4.347l-4.308 4.279V88.4zM115.67 78.838l-1.383 1.373v-.52l.861-.853zM114.287 92.32l4.309-4.279v.52l-4.309 4.28zM124.453 82.227v.517l-4.308 4.279v-.518zM124.453 97.156v1.133h-1.138zM114.287 84.866l4.309-4.278v1.53l-4.309 4.279zM121.898 78.838l-1.753 1.742v-1.528l.216-.214z"/><path fill="#fff" d="M167.656 75.56h-29.129v23.613h29.129z"/><path fill="#37474F" d="M165.94 77.266h-25.696v20.203h25.696z"/><path fill="#455A64" d="m149.717 77.268-9.47 9.403v-4.353l5.092-5.05zM165.83 77.268l-20.341 20.2h-4.381l20.342-20.2zM154.094 77.268l-13.847 13.75v-.514l13.326-13.236zM165.943 94.172v.517l-2.797 2.778h-.524zM143.251 77.268l-3.004 2.983v-1.528l1.466-1.455zM165.943 86.71v1.534l-9.288 9.223h-1.544z"/><path fill="#fff" d="M149.291 77.266h-1.717v20.203h1.717zM158.613 77.266h-1.717v20.203h1.717zM182.549 70.3h-80.384v2.232h80.384z"/><path fill="#EBEBEB" d="M182.549 71.78h-80.384v.751h80.384z"/><path fill="#A6A6A6" d="m102.165 70.301 80.381-.069h.072v2.371h-.072l-80.381-.071 80.381-.072-.072.072.003-2.23.069.07z"/><path fill="#fff" d="M74.425 133.865v-28.197h-4.067v28.197z"/><path fill="#EBEBEB" d="M71.115 133.865v-28.197h-.757v28.197z"/><path fill="#A6A6A6" d="m70.358 133.864-.063-28.197v-.065h4.208v.071l-.052 28.197v.017h-.017zm0 0 4.07-.017-.02.017-.052-28.197.072.072h-4.07l.066-.066z"/><path fill="#fff" d="M42.756 133.865v-28.197h-4.067v28.197z"/><path fill="#EBEBEB" d="M39.447 133.865v-28.197h-.757v28.197z"/><path fill="#A6A6A6" d="m38.69 133.864-.067-28.197v-.065h4.205v.071l-.052 28.197v.017h-.02zm0 0 4.066-.017-.017.017-.052-28.197.069.072h-4.067l.066-.066z"/><path fill="#fff" d="M180.193 133.867V105.67h-4.066v28.197z"/><path fill="#EBEBEB" d="M176.884 133.865v-28.197h-.758v28.197z"/><path fill="#A6A6A6" d="M180.193 105.668c.023 2.351.043 4.699.046 7.05l.02 7.044c.014 2.348 0 4.699 0 7.047l-.023 7.05v.034h-.035l-4.066-.034 4.066-.034-.034.034-.023-7.05c0-2.348-.023-4.699 0-7.047l.023-7.05c-.018-2.345.003-4.693.026-7.044"/><path fill="#fff" d="M137.085 133.865v-28.197h-4.067v28.197z"/><path fill="#EBEBEB" d="M133.779 133.867V105.67h-.757v28.197z"/><path fill="#A6A6A6" d="M133.021 105.668c.02 2.351.043 4.699.043 7.05l.023 7.05v7.047l-.031 7.05-.035-.035 4.067.035-4.067.034h-.037v-.034l-.021-7.05c0-2.348-.023-4.699 0-7.047l.021-7.05c-.006-2.351.014-4.699.037-7.05"/><path fill="#fff" d="M106.094 133.865v-28.197h-4.067v28.197z"/><path fill="#EBEBEB" d="M102.787 133.865v-28.197h-.757v28.197z"/><path fill="#A6A6A6" d="m102.027 133.864-.075-28.197v-.065h4.205v.071l-.055 28.197v.017h-.017zm0 0 4.069-.017-.02.017-.052-28.197.072.072h-4.069l.066-.066z"/><path fill="#EBEBEB" d="M38.69 105.668h4.066v2.64l-4.066.031zM70.358 105.668h4.07v2.394l-4.07.031zM102.027 105.668h4.07v2.148l-4.07.031zM133.021 105.668h4.067v1.908l-4.067.031zM180.193 105.668v1.57l-4.067.032v-1.602z"/><path fill="#fff" d="M105.627 97.756H39.159v2.831h66.468z"/><path fill="#EBEBEB" d="M105.627 99.84H39.159v.752h66.468z"/><path fill="#fff" d="M105.627 93.982H39.159v2.832h66.468z"/><path fill="#EBEBEB" d="M105.627 96.06H39.159v.753h66.468z"/><path fill="#fff" d="M105.627 90.207H39.159v2.831h66.468z"/><path fill="#EBEBEB" d="M105.627 92.285H39.159v.752h66.468z"/><path fill="#fff" d="M133.001 112.154h-26.905v2.832h26.905z"/><path fill="#EBEBEB" d="M133.001 114.232h-26.905v.753h26.905z"/><path fill="#A6A6A6" d="m133.001 114.985-26.905.069h-.069v-2.972h.072l13.453.02 13.452.037h.015zm0 0-.014-2.831h.014l-13.452.037-13.453.023.072-.072v2.831l-.066-.065z"/><path fill="#fff" d="M133.001 108.379h-26.905v2.831h26.905z"/><path fill="#EBEBEB" d="M133.001 110.459h-26.905v.752h26.905z"/><path fill="#fff" d="M133.001 104.602h-26.905v2.831h26.905z"/><path fill="#EBEBEB" d="M133.001 106.684h-26.905v.752h26.905z"/><path fill="#A6A6A6" d="m133.001 107.435-26.905.066h-.069v-2.972h.072l13.453.02 13.452.038h.015zm0 0-.014-2.834.014.014-13.452.037-13.453.02.072-.071v2.834l-.066-.066z"/><path fill="#fff" d="M133.001 108.379h-26.905v2.831h26.905z"/><path fill="#EBEBEB" d="M133.001 110.459h-26.905v.752h26.905z"/><path fill="#A6A6A6" d="m133.001 111.211-26.905.066h-.069v-2.955h.072l13.453.02 13.452.037h.015v.015zm0 0-.014-2.832h.014l-13.452.038-13.453.023.072-.072v2.831l-.066-.065z"/><path fill="#fff" d="M133.001 115.93h-26.905v2.831h26.905z"/><path fill="#EBEBEB" d="M133.001 118.012h-26.905v.752h26.905z"/><path fill="#A6A6A6" d="m133.001 118.76-26.905.069h-.069v-2.972h.072l13.453.023 13.452.035h.015v.014zm0 0-.014-2.831h.014l-13.452.034-13.453.023.072-.071v2.831l-.066-.066z"/><path fill="#fff" d="M133.001 119.705h-26.905v2.831h26.905z"/><path fill="#EBEBEB" d="M133.001 121.787h-26.905v.752h26.905z"/><path fill="#A6A6A6" d="m133.001 122.539-26.905.065h-.069v-2.971h.072l13.453.023 13.452.034h.015v.014zm0 0-.014-2.835.014.015-13.452.043-13.453.02.072-.072v2.834l-.066-.068z"/><path fill="#fff" d="M133.001 123.48h-26.905v2.832h26.905z"/><path fill="#EBEBEB" d="M133.001 125.562h-26.905v.753h26.905z"/><path fill="#A6A6A6" d="m133.001 126.314-26.905.066h-.069v-2.972h.072l13.453.023 13.452.037h.015zm0 0-.014-2.834.014.014-13.452.037-13.453.02.072-.071v2.834l-.066-.069z"/><path fill="#fff" d="M133.001 127.254h-26.905v2.831h26.905z"/><path fill="#EBEBEB" d="M133.001 129.338h-26.905v.752h26.905z"/><path fill="#A6A6A6" d="m133.001 130.089-26.905.066h-.069v-2.958h.072l13.453.023 13.452.037h.015zm0 0-.014-2.835.014.015-13.452.037-13.453.02.072-.072v2.835l-.066-.066z"/><path fill="#fff" d="M133.001 131.033h-26.905v2.832h26.905z"/><path fill="#EBEBEB" d="M133.001 133.111h-26.905v.753h26.905z"/><path fill="#A6A6A6" d="m133.001 133.864-26.905.066h-.069v-2.969h.072l13.453.02 13.452.037h.015v.014zm0 0-.014-2.832h.014l-13.452.038-13.453.02.072-.069v2.831l-.066-.065z"/><path fill="#fff" d="M176.84 97.756h-43.727v2.831h43.727z"/><path fill="#EBEBEB" d="M176.84 99.84h-43.727v.752h43.727z"/><path fill="#fff" d="M176.84 93.982h-43.727v2.832h43.727z"/><path fill="#EBEBEB" d="M176.84 96.06h-43.727v.753h43.727z"/><path fill="#fff" d="M176.84 90.207h-43.727v2.831h43.727z"/><path fill="#EBEBEB" d="M176.84 92.285h-43.727v.752h43.727z"/><path fill="#fff" d="M105.627 72.531v29.098h2.246V72.531z"/><path fill="#EBEBEB" d="M107.115 72.531v29.098h.758V72.531z"/><path fill="#fff" d="M130.867 72.531v29.098h2.247V72.531z"/><path fill="#EBEBEB" d="M132.359 72.531v29.098h.758V72.531z"/><path fill="#fff" d="M176.84 72.531v29.098h2.246V72.531z"/><path fill="#EBEBEB" d="M178.329 72.531v29.098h.758V72.531z"/><path fill="#A6A6A6" d="m176.832 72.53 2.246-.016h.018v.017c.026 2.425.023 4.862.031 7.276l.023 7.273-.014 7.276c0 2.422 0 4.847-.035 7.272v.02h-.017l-2.246-.02 2.246-.017-.02.017c-.026-2.425-.02-4.862-.032-7.272l-.02-7.276.02-7.273c0-2.426 0-4.862.032-7.276l.02.02z"/><path fill="#ED3A56" d="M176.126 105.668h-39.038v7.902h39.038z"/><path fill="#000" d="M176.126 106.764h-39.038v.071h39.038zM176.126 107.893h-39.038v.071h39.038zM176.126 109.025h-39.038v.072h39.038zM176.126 110.154h-39.038v.072h39.038zM176.126 111.287h-39.038v.072h39.038zM176.126 112.418h-39.038v.071h39.038z" opacity=".2"/><path fill="#fff" d="M182.545 101.629H33.453v4.038h149.092z"/><path fill="#EBEBEB" d="M182.545 104.916H33.453v.752h149.092z"/><path fill="#A6A6A6" d="M182.618 105.748H33.382v-4.189h149.236zm-149.092-.143h148.948v-3.903H33.526z"/><path fill="#ED3A56" d="M146.741 119.162a2.4 2.4 0 0 1-.624-.352c-.081-.128-.435-.66-.559-.68-.467-.08-1.728-.032-2.166.197-.233.123.014 1.047.228 1.264.213.218 1.748.26 1.995.212a.86.86 0 0 0 .432-.303l.608.168z"/><path fill="#ED3A56" d="M146.88 118.48a1.7 1.7 0 0 0-.513.146c-.208.303-.343.65-.394 1.013a.97.97 0 0 0 .273.483z"/><path fill="#000" d="M146.88 118.48a1.7 1.7 0 0 0-.513.146c-.208.303-.343.65-.394 1.013a.97.97 0 0 0 .273.483z" opacity=".1"/><path fill="#ED3A56" d="M167.039 119.162q.339-.13.625-.352c.081-.128.432-.66.556-.68.466-.08 1.728-.032 2.166.197.233.123 0 1.047-.228 1.264-.227.218-1.748.26-1.996.212a.84.84 0 0 1-.429-.303l-.61.168z"/><path fill="#ED3A56" d="M166.898 118.48q.268.033.513.146c.208.303.344.65.395 1.013a.97.97 0 0 1-.274.483z"/><path fill="#000" d="M166.898 118.48q.268.033.513.146c.208.303.344.65.395 1.013a.97.97 0 0 1-.274.483z" opacity=".1"/><path fill="#263238" d="M145.699 124.684h-.279a1.81 1.81 0 0 0-1.815 1.801v4.491c0 .995.813 1.801 1.815 1.801h.279a1.81 1.81 0 0 0 1.815-1.801v-4.491c0-.995-.813-1.801-1.815-1.801"/><path fill="#ED3A56" d="M144.896 122.336s-.905.458-1.118.881 0 4.799 0 5.134c.189.935.45 1.855.781 2.751.124.229 1.849.495 1.849.495z"/><path fill="#000" d="M144.896 122.336s-.905.458-1.118.881 0 4.799 0 5.134c.189.935.45 1.855.781 2.751.124.229 1.849.495 1.849.495z" opacity=".1"/><path fill="#263238" d="M168.094 132.781h.279a1.81 1.81 0 0 0 1.815-1.802v-4.49c0-.995-.813-1.802-1.815-1.802h-.279a1.81 1.81 0 0 0-1.815 1.802v4.49c0 .996.813 1.802 1.815 1.802"/><path fill="#ED3A56" d="M168.894 122.336s.907.458 1.12.881 0 4.799 0 5.134a18.4 18.4 0 0 1-.78 2.751c-.127.229-1.849.495-1.849.495z"/><path fill="#000" d="M168.894 122.336s.907.458 1.12.881 0 4.799 0 5.134a18.4 18.4 0 0 1-.78 2.751c-.127.229-1.849.495-1.849.495z" opacity=".1"/><path fill="#ED3A56" d="M169.246 129.623c0 .115-.397 1.757-.559 1.922-.161.166-3.358.301-3.554.301s-.806-.344-.921-.369-6.532 0-7.315 0-7.2-.02-7.316 0-.728.369-.924.369-3.393-.132-3.554-.301-.55-1.807-.559-1.922c-.008-.114.116-.52.116-.609s-.095-6.232-.07-6.352q.152-.58.395-1.129c.112-.181 1.126-1.45 1.152-1.531.622-1.856 2.364-4.576 2.629-4.807a1.73 1.73 0 0 1 .887-.418c.268-.034 3.871-.166 7.244-.166s6.975.132 7.24.166c.329.049.637.191.887.409.265.238 2.016 2.952 2.632 4.808.026.08 1.037 1.35 1.152 1.53q.242.55.392 1.13c.029.12-.069 6.263-.069 6.352 0 .088.127.503.115.617"/><path fill="#000" d="M168.48 128.53c0 .106-.144.927-.236.953-2.574.635-8.752 1.169-11.338 1.126-2.592.043-8.767-.491-11.339-1.126-.095-.026-.239-.858-.239-.953s.107-1.281.239-1.315c.133-.035 2.854.451 5.141.752 4.112.506 8.272.506 12.384 0 2.304-.301 5.011-.787 5.144-.752.132.034.244 1.209.244 1.315" opacity=".1"/><path fill="#fff" d="m165.957 127.547-.864 2.474a69 69 0 0 1-8.185.589 70 70 0 0 1-8.188-.589l-.864-2.474c.885.137 1.913.286 2.88.42 4.113.507 8.272.507 12.384 0 .925-.126 1.953-.283 2.837-.42" opacity=".5"/><path fill="#263238" d="M163.091 127.967q-.355.84-.85 1.607a2.6 2.6 0 0 1-.766.595c-.124.026-1.659.44-4.579.44s-4.456-.414-4.582-.44a2.6 2.6 0 0 1-.766-.595 11 11 0 0 1-.864-1.607c4.112.506 8.271.506 12.384 0z"/><path fill="#fff" d="M147.223 128.517a.542.542 0 1 1-1.042-.202.53.53 0 0 1 .5-.333.538.538 0 0 1 .542.535"/><path fill="#DBDBDB" d="M146.304 128.136a.57.57 0 0 1 .524-.146.578.578 0 0 1 .446.631.57.57 0 0 1-.316.44.577.577 0 0 1-.817-.637.56.56 0 0 1 .163-.288m0 0a.5.5 0 0 0 .028.733.51.51 0 0 0 .544.068.496.496 0 0 0-.036-.911.5.5 0 0 0-.536.11"/><path fill="#fff" d="M166.51 128.517a.535.535 0 0 0 .332.499.55.55 0 0 0 .591-.115.536.536 0 0 0-.382-.919.537.537 0 0 0-.541.535"/><path fill="#DBDBDB" d="M167.431 128.136a.505.505 0 0 0-.761.065.493.493 0 0 0 .189.736.506.506 0 0 0 .669-.23.5.5 0 0 0 .016-.4.5.5 0 0 0-.113-.171m0 0a.56.56 0 0 1 .139.617.577.577 0 0 1-1.076-.409.578.578 0 0 1 .937-.208"/><path fill="#455A64" d="M167.169 119.914s-4.815.208-10.273.208-10.273-.208-10.273-.208c.985-2.44 2.272-4.35 2.416-4.442q.376-.209.789-.326c.605-.149 4.928-.177 7.068-.177s6.46.028 7.065.177q.416.117.792.326c.141.092 1.422 2.002 2.416 4.442"/><path fill="#263238" d="M167.169 119.914s-4.815.209-10.273.209-10.273-.209-10.273-.209q.137-.347.288-.678c1.109.046 5.314.198 9.991.198s8.879-.152 9.988-.198q.15.332.279.678"/><g fill="#263238" opacity=".7"><path d="M155.304 117.898h-6.722a.387.387 0 0 0-.383.326l-.173 1.079a.388.388 0 0 0 .386.449h7.065a.4.4 0 0 0 .297-.137.4.4 0 0 0 .079-.146.4.4 0 0 0 .01-.166l-.173-1.079a.39.39 0 0 0-.386-.326"/><path d="M153.55 116.648h-3.208a.776.776 0 0 0-.778.773v.123c0 .426.349.772.778.772h3.208c.43 0 .778-.346.778-.772v-.123a.775.775 0 0 0-.778-.773"/></g><g fill="#263238" opacity=".7"><path d="M165.208 117.898h-6.722a.394.394 0 0 0-.386.326l-.17 1.079a.386.386 0 0 0 .383.46h7.068a.4.4 0 0 0 .297-.136.4.4 0 0 0 .079-.147.4.4 0 0 0 .01-.166l-.173-1.078a.39.39 0 0 0-.386-.338"/><path d="M163.451 116.648h-3.209a.775.775 0 0 0-.777.773v.123c0 .426.348.772.777.772h3.209a.775.775 0 0 0 .777-.772v-.123a.775.775 0 0 0-.777-.773"/></g><path fill="#263238" d="M165.177 119.68h-6.661l.639-.901 2.693-.14 2.693.14z"/><path fill="#263238" d="M161.856 117.412c-.412 0-.808.163-1.1.452a1.543 1.543 0 0 0 .026 2.211h.538a1.24 1.24 0 0 1-.622-.675 1.3 1.3 0 0 1-.077-.432 1.2 1.2 0 0 1 .195-.661q.086-.137.208-.246a1.238 1.238 0 0 1 1.892.278 1.21 1.21 0 0 1 .115 1.006c-.094.3-.3.551-.576.704h.542a1.541 1.541 0 0 0-1.127-2.611z"/><path fill="#263238" d="m161.878 119.138-1.166-.918.199-.251.967.763.968-.763.199.251z"/><g fill="#fff" opacity=".1"><path d="m155.186 114.961-5.101 5.065-1.232-.031 5.057-5.023zM164.92 115.665l-4.464 4.43-1.281.017 4.959-4.924q.324.103.619.271.092.097.167.206M166.803 119.056l-.915.907-1.308.04 1.814-1.802q.208.409.409.855M153.505 114.979l-5.04 5.002h-.188l5.029-4.997zM159.604 114.969l-5.184 5.148h-.193l5.184-5.148zM166.155 117.733l-2.304 2.288h-.199l2.443-2.425c.014.051.037.094.06.137M150.751 115.049l-3.528 3.503c.144-.303.288-.592.435-.858l2.629-2.614q.203-.022.464-.031M161.306 114.992l-5.164 5.128h-.432l5.167-5.134z"/></g><path fill="#000" d="M146.623 119.914a10 10 0 0 1-.844 1.476l-.034.051c-.015.055.049.166.08.223.032.058.104.166.159.252-.135-.106-.447-.369-.337-.558.27-.516.598-1 .976-1.444M167.17 119.914c.378.444.706.928.976 1.444.11.189-.204.449-.34.558.055-.086.113-.166.159-.252s.098-.168.08-.223l-.034-.051a10 10 0 0 1-.841-1.476M169.038 123.911c0 .115 0 .755-.092.81a10 10 0 0 1-2.016.612 58.5 58.5 0 0 1-20.086 0 10 10 0 0 1-2.016-.612c-.086-.055-.092-.695-.092-.81 0-.114.755-1.607.896-1.644s1.705.858 4.32 1.315c2.69.481 6.912.492 6.912.492s4.234 0 6.912-.492c2.624-.469 4.188-1.275 4.32-1.235s.942 1.453.942 1.564" opacity=".1"/><path fill="#fff" d="M168.946 124.721a9.7 9.7 0 0 1-2.914.901 63 63 0 0 1-3.027.463 49 49 0 0 1-6.108.452 55 55 0 0 1-9.887-1.056 8.5 8.5 0 0 1-2.166-.755 9 9 0 0 0 2.186.638c3.265.51 6.562.797 9.867.858a59 59 0 0 0 6.079-.38 79 79 0 0 0 3.03-.372 13 13 0 0 0 1.498-.26 9.5 9.5 0 0 0 1.44-.486z" opacity=".5"/><path fill="#fff" d="M146.223 121.971c.545.048 3.139 1.65 3.249 1.781.109.132.374 1.456.21 1.585s-2.125.063-2.716-.032c-.59-.094-1.811-.423-2.088-.632-.276-.208-.063-1.69.208-1.985.354-.38.786-.749 1.137-.717"/><path fill="#DBDBDB" d="M146.223 121.97q.211.04.406.132c.395.171.772.377 1.152.572.576.311 1.129.626 1.665.986a.32.32 0 0 1 .132.195q.067.206.112.417.104.424.116.858c0 .166-.035.286-.216.286q-.704.075-1.412.035-.651-.016-1.296-.112a8.8 8.8 0 0 1-1.86-.572.8.8 0 0 1-.193-.123 1.43 1.43 0 0 1-.084-.858c.024-.394.136-.778.329-1.124.288-.306.688-.726 1.152-.721zm0 0c-.441 0-.781.36-1.069.652a.84.84 0 0 0-.207.363q-.125.408-.155.833a2.4 2.4 0 0 0 .02.629.3.3 0 0 0 .046.135.3.3 0 0 0 .106.096 7.4 7.4 0 0 0 1.524.461 8.5 8.5 0 0 0 1.693.177c.288 0 .576.017.864.015q.302.008.599-.049a.1.1 0 0 0 .018-.049 3.5 3.5 0 0 0-.072-.929 3 3 0 0 0-.133-.504c0-.022-.034-.037-.057-.06a23 23 0 0 0-1.625-1.038 12 12 0 0 0-1.152-.598 2 2 0 0 0-.406-.134z"/><path fill="#DBDBDB" d="M147.568 123.943a.74.74 0 0 1-.342.623.756.756 0 0 1-1.002-.166.74.74 0 0 1-.12-.699.75.75 0 0 1 .199-.307.76.76 0 0 1 1.141.141.75.75 0 0 1 .124.408m0 0a.66.66 0 0 0-.294-.548.68.68 0 0 0-.621-.07.665.665 0 0 0-.252 1.07.678.678 0 0 0 1.048-.077.67.67 0 0 0 .119-.375M149.019 124.413a.64.64 0 0 1-.749.631.65.65 0 0 1-.331-.156.653.653 0 0 1 0-.947.651.651 0 0 1 .973.125.63.63 0 0 1 .107.347m0 0a.565.565 0 0 0-.349-.525.58.58 0 0 0-.788.397.574.574 0 0 0 .959.543.58.58 0 0 0 .178-.415"/><path fill="#ED3A56" d="M145.984 123.281a7 7 0 0 0-.13 1.57.9.9 0 0 0 .156.24 4.4 4.4 0 0 1-1.132-.417c-.274-.209-.063-1.691.207-1.985.346-.383.787-.752 1.135-.718.222.049.437.129.637.237 0 0-.79.833-.873 1.073"/><path fill="#000" d="M145.984 123.281a7 7 0 0 0-.13 1.57.9.9 0 0 0 .156.24 4.4 4.4 0 0 1-1.132-.417c-.274-.209-.063-1.691.207-1.985.346-.383.787-.752 1.135-.718.222.049.437.129.637.237 0 0-.79.833-.873 1.073" opacity=".2"/><path fill="#fff" d="M167.57 121.971c-.548.048-3.143 1.65-3.252 1.781-.109.132-.372 1.456-.21 1.585.161.129 2.125.063 2.716-.032.59-.094 1.814-.423 2.088-.632.273-.208.063-1.69-.205-1.985-.348-.38-.786-.749-1.137-.717"/><path fill="#DBDBDB" d="M167.57 121.971q-.211.043-.406.134-.593.269-1.152.598a22 22 0 0 0-1.622 1.038c-.026.023-.052.037-.06.06a2.7 2.7 0 0 0-.13.503 3.3 3.3 0 0 0-.075.93.14.14 0 0 0 .018.049l.074.02q.69.054 1.383.014a8.4 8.4 0 0 0 1.69-.177 7.5 7.5 0 0 0 1.527-.461.3.3 0 0 0 .105-.097.3.3 0 0 0 .045-.135q.053-.312.02-.629a3.7 3.7 0 0 0-.153-.832.8.8 0 0 0-.21-.363c-.288-.286-.625-.652-1.066-.652zm0 0c.463 0 .846.414 1.152.72.192.346.305.73.331 1.124.06.288.031.587-.084.858a.8.8 0 0 1-.195.123 8.7 8.7 0 0 1-1.861.572c-.714.099-1.436.139-2.157.12a4 4 0 0 1-.547-.042.4.4 0 0 1-.13-.043.2.2 0 0 1-.075-.14 3.1 3.1 0 0 1 .104-.976q.043-.212.112-.417a.32.32 0 0 1 .13-.195c.538-.36 1.103-.675 1.665-.986.377-.206.757-.412 1.152-.572q.194-.093.406-.132z"/><path fill="#DBDBDB" d="M166.222 123.944a.673.673 0 1 0 1.325-.169.67.67 0 0 0-.5-.481.673.673 0 0 0-.825.65m0 0a.75.75 0 0 1 .88-.735.76.76 0 0 1 .387.186.75.75 0 0 1-.576 1.297.76.76 0 0 1-.601-.391.75.75 0 0 1-.09-.357M164.771 124.413a.57.57 0 0 0 .349.525.58.58 0 0 0 .788-.397.565.565 0 0 0-.221-.59.576.576 0 0 0-.916.462m0 0a.64.64 0 0 1 .293-.536.66.66 0 0 1 .613-.049.64.64 0 0 1 .174 1.059.646.646 0 0 1-1.08-.474"/><path fill="#ED3A56" d="M167.808 123.281c.103.517.146 1.044.127 1.57a.9.9 0 0 1-.153.24 4.4 4.4 0 0 0 1.129-.417c.288-.209.064-1.691-.207-1.985-.346-.383-.783-.752-1.135-.718a2.4 2.4 0 0 0-.633.237s.789.833.872 1.073"/><path fill="#000" d="M167.808 123.281c.103.517.146 1.044.127 1.57a.9.9 0 0 1-.153.24 4.4 4.4 0 0 0 1.129-.417c.288-.209.064-1.691-.207-1.985-.346-.383-.783-.752-1.135-.718a2.4 2.4 0 0 0-.633.237s.789.833.872 1.073" opacity=".2"/><path fill="#37474F" d="M163.817 123.583a15 15 0 0 1-.766 1.638 2.4 2.4 0 0 1-.827.498 32.7 32.7 0 0 1-10.656 0 2.4 2.4 0 0 1-.826-.498 15 15 0 0 1-.766-1.638c0-.061 1.984.323 3.168.368.576.023 2.425.123 3.744.123s3.168-.1 3.744-.123c1.201-.045 3.173-.429 3.185-.368"/><path fill="#455A64" d="M151.272 123.75c.267.04.555.08.841.112h-2.034l-.046-.112zm11.249 0c-.268.04-.556.08-.841.112h2.03l.049-.112zm-4.409.303c-.424 0-.844.02-1.224.02-.381 0-.804 0-1.227-.02h-5.495l.052.112h13.366q.026-.058.049-.112zm-7.814.306.052.109h13.072q.03-.052.055-.109zm.144.303c.017.04.038.078.055.112h12.799q.025-.052.051-.112zm.15.306.058.112h12.473l.057-.112zm.184.304a1 1 0 0 0 .138.111h11.947q.073-.05.138-.111zm.464.306q.113.063.233.111h10.826q.122-.05.236-.111zm1.351.306c.267.037.576.074.944.108h6.702q.545-.052.948-.108z"/><path fill="#fff" d="M159.523 127.123h-5.253v1.393h5.253z"/></svg>