<svg xmlns="http://www.w3.org/2000/svg" width="42" height="10" fill="none" viewBox="0 0 42 10"><path fill="#6B7280" d="M1.5 4.4a.6.6 0 0 0 0 1.2zm39.924 1.024a.6.6 0 0 0 0-.848L37.606.757a.6.6 0 1 0-.849.849L40.152 5l-3.395 3.394a.6.6 0 1 0 .849.849zM2.734 5.6a.6.6 0 0 0 0-1.2zm2.47-1.2a.6.6 0 0 0 0 1.2zm2.468 1.2a.6.6 0 0 0 0-1.2zm2.469-1.2a.6.6 0 0 0 0 1.2zm2.468 1.2a.6.6 0 0 0 0-1.2zm2.47-1.2a.6.6 0 0 0 0 1.2zm2.468 1.2a.6.6 0 0 0 0-1.2zm2.469-1.2a.6.6 0 0 0 0 1.2zm2.468 1.2a.6.6 0 0 0 0-1.2zm2.47-1.2a.6.6 0 0 0 0 1.2zm2.468 1.2a.6.6 0 0 0 0-1.2zm2.469-1.2a.6.6 0 0 0 0 1.2zm2.468 1.2a.6.6 0 0 0 0-1.2zm2.47-1.2a.6.6 0 0 0 0 1.2zm2.468 1.2a.6.6 0 0 0 0-1.2zm2.469-1.2a.6.6 0 0 0 0 1.2zM1.5 5.6h1.234V4.4H1.5zm3.703 0h2.469V4.4H5.203zm4.938 0h2.468V4.4h-2.468zm4.937 0h2.469V4.4h-2.469zm4.938 0h2.468V4.4h-2.468zm4.937 0h2.469V4.4h-2.469zm4.938 0h2.468V4.4h-2.468zm4.937 0h2.469V4.4h-2.469zm4.938 0H41V4.4h-1.234z"/></svg>