<svg xmlns="http://www.w3.org/2000/svg" xml:space="preserve" viewBox="0 0 500 500"><path d="M112.5-.2h276.3c62.8.2 113.6 51.4 113.8 114.6v275.9c-.2 63.2-51 114.4-113.8 114.5H112.5C49.8 504.6-1.1 453.5-1.3 390.3v-276C-1.1 51.1 49.7-.1 112.5-.2" style="fill-rule:evenodd;clip-rule:evenodd;fill:#160c1a"/><path d="M319.4 70.7c3.5 29.7 14.4 55.6 32.5 73-25.5-13.2-40.8-38.2-45.6-73zm72.4 94.1c4.4 1 9 1.6 13.5 1.8v58.5c-29.4 2.9-55.1-6.8-85-24.6l4.6 100.4c0 32.4 0 47.2-17.3 77.1-42.4 72.7-121.6 72.6-168.5 31.3 61.2 35.1 167.9 7.6 167.7-111.6V187.9c29.9 18 55.7 27.6 85 24.6zM195.9 207c6.4-1.3 12.9-2.3 19.4-2.9V266c-24.6 4.1-40.4 11.6-47.7 25.6-20.5 39.5.9 71.7 29.5 82-35.8-1.3-71.2-38-46.6-85.1 7.3-14 20.5-21.6 45.4-25.7z" style="fill-rule:evenodd;clip-rule:evenodd;fill:#fb2c53"/><path d="M306 67.3c6.1 52.3 35.2 83.4 85.8 86.6v58.7c-29.4 2.9-55.1-6.8-85-24.6v109.6c.2 143.2-153.8 154.3-197.7 83.1-29.2-47.2-18.6-160.7 87-177.6v59.6c-24.6 4.1-38.1 11.6-45.4 25.7-45.1 86.6 112.7 138.2 101.8-1.4V67.3z" style="fill-rule:evenodd;clip-rule:evenodd;fill:#fff"/></svg>