<svg xmlns="http://www.w3.org/2000/svg" width="148" height="28" fill="none"><g clip-path="url(#a)"><path fill="#0E4595" d="m14.287 19.863 1.981-11.625h3.169l-1.983 11.625zM28.902 8.488A8.2 8.2 0 0 0 26.062 8c-3.13 0-5.336 1.577-5.355 3.836-.018 1.671 1.575 2.603 2.777 3.159 1.233.57 1.648.933 1.642 1.442-.008.78-.985 1.135-1.896 1.135-1.268 0-1.942-.176-2.983-.61l-.408-.185-.445 2.603c.74.324 2.109.605 3.53.62 3.33 0 5.493-1.559 5.518-3.972.012-1.322-.833-2.329-2.66-3.159-1.108-.537-1.787-.896-1.78-1.44 0-.484.575-1 1.815-1a5.85 5.85 0 0 1 2.372.445l.284.134zm8.155-.25h-2.449c-.758 0-1.326.207-1.66.964l-4.705 10.653h3.327s.544-1.432.667-1.747l4.058.005c.095.407.386 1.742.386 1.742h2.94zm-3.885 7.506c.262-.67 1.262-3.25 1.262-3.25-.018.031.26-.672.42-1.109l.215 1.002.733 3.357zM11.597 8.237l-3.102 7.928-.33-1.61c-.578-1.858-2.378-3.87-4.39-4.877l2.838 10.166 3.352-.003 4.989-11.604z"/><path fill="#F2AE14" d="M5.6 8.237H.49l-.04.242c3.975.962 6.606 3.288 7.698 6.082L7.037 9.22c-.192-.736-.748-.956-1.437-.981"/></g><path fill="#FF5F00" d="M78.318 17.772h-6.256V6.529h6.256z"/><path fill="#231F20" d="M86.3 22.754v.046h.043a.1.1 0 0 0 .023-.006l.006-.007.002-.01-.002-.01-.006-.007a.04.04 0 0 0-.023-.006zm.043-.033a.1.1 0 0 1 .052.015.05.05 0 0 1 .018.041q0 .01-.003.02l-.011.016a.07.07 0 0 1-.042.018l.058.066h-.045l-.053-.066H86.3v.066h-.037v-.175zm-.011.236a.147.147 0 0 0 .134-.204.15.15 0 0 0-.078-.078.14.14 0 0 0-.056-.01.15.15 0 0 0-.106.042.15.15 0 0 0 0 .208.15.15 0 0 0 .106.043m0-.335a.19.19 0 0 1 .176.115.19.19 0 0 1-.04.207.2.2 0 0 1-.136.056.2.2 0 0 1-.138-.056.2.2 0 0 1-.04-.209.19.19 0 0 1 .102-.1.2.2 0 0 1 .076-.015m-17.712-.674c0-.334.219-.608.576-.608.342 0 .572.262.572.608 0 .345-.23.608-.572.608-.357 0-.576-.274-.576-.608m1.537 0v-.95h-.413v.232a.72.72 0 0 0-.6-.279c-.531 0-.949.418-.949.997 0 .58.418.997.95.997a.72.72 0 0 0 .6-.278v.23h.412v-.95Zm13.949 0c0-.334.219-.608.576-.608.342 0 .572.262.572.608 0 .345-.23.608-.572.608-.357 0-.576-.274-.576-.608m1.538 0v-1.712h-.414v.994a.72.72 0 0 0-.6-.279c-.531 0-.949.418-.949.997 0 .58.417.997.95.997a.72.72 0 0 0 .6-.278v.23h.413v-.95Zm-10.363-.628c.266 0 .437.167.48.46h-.985c.044-.273.21-.46.505-.46m.008-.37c-.556 0-.945.405-.945.997 0 .604.405.997.973.997.286 0 .548-.071.778-.266l-.202-.306a.9.9 0 0 1-.552.199c-.266 0-.509-.123-.568-.465h1.41q.006-.077.008-.159c-.005-.592-.37-.997-.902-.997m4.984.997c0-.334.219-.608.576-.608.342 0 .572.263.572.608 0 .346-.23.608-.572.608-.357 0-.576-.274-.576-.608m1.537 0v-.949h-.413v.232a.72.72 0 0 0-.6-.279c-.531 0-.949.418-.949.997 0 .58.418.997.95.997a.72.72 0 0 0 .6-.278v.23h.412zm-3.868 0c0 .576.4.997 1.013.997.286 0 .476-.064.682-.226l-.198-.334a.84.84 0 0 1-.497.17c-.33-.003-.572-.241-.572-.607 0-.365.242-.604.572-.608a.84.84 0 0 1 .497.171l.198-.334a1 1 0 0 0-.682-.226c-.612 0-1.013.421-1.013.997m5.322-.997a.56.56 0 0 0-.5.278v-.23h-.41v1.898h.413v-1.064c0-.314.136-.488.405-.488a.7.7 0 0 1 .258.047l.128-.389a.9.9 0 0 0-.294-.052m-11.066.2c-.198-.132-.472-.2-.774-.2-.48 0-.79.231-.79.608 0 .31.23.5.654.56l.196.028c.226.032.333.091.333.199 0 .146-.15.23-.433.23-.286 0-.492-.091-.631-.198l-.194.322c.226.166.512.246.822.246.548 0 .866-.258.866-.62 0-.334-.25-.508-.664-.568l-.194-.028c-.179-.023-.322-.059-.322-.186 0-.139.135-.223.361-.223.243 0 .477.092.592.163l.179-.334Zm5.327-.2a.56.56 0 0 0-.5.279v-.23h-.41v1.897h.414v-1.064c0-.314.135-.488.404-.488a.7.7 0 0 1 .259.047l.127-.389a.9.9 0 0 0-.294-.052m-3.523.048h-.675v-.576h-.417v.576h-.385v.377h.385v.867c0 .44.17.702.659.702a.97.97 0 0 0 .516-.146l-.119-.354a.76.76 0 0 1-.365.107c-.207 0-.274-.127-.274-.317v-.858h.675zm-6.172 1.899v-1.191c0-.45-.286-.751-.747-.755-.242-.004-.492.071-.667.338a.7.7 0 0 0-.627-.338.63.63 0 0 0-.556.282v-.235h-.414v1.898h.417v-1.052c0-.33.182-.505.465-.505.274 0 .413.179.413.5v1.057h.417v-1.052c0-.33.19-.505.464-.505.282 0 .417.179.417.5v1.057z"/><path fill="#EB001B" d="M72.459 12.15a7.14 7.14 0 0 1 2.73-5.621 7.15 7.15 0 0 0-11.568 5.621 7.15 7.15 0 0 0 11.568 5.622 7.14 7.14 0 0 1-2.73-5.622"/><path fill="#F79E1B" d="M86.758 12.15a7.15 7.15 0 0 1-11.568 5.622 7.14 7.14 0 0 0 2.731-5.622 7.14 7.14 0 0 0-2.731-5.62 7.15 7.15 0 0 1 11.569 5.621"/><g clip-path="url(#b)"><path fill="#fff" d="M117.18 20.002v-5.194h5.502l.591.77.61-.77h19.96v4.835s-.521.352-1.124.359h-11.055l-.667-.82v.82h-2.179v-1.4s-.298.196-.942.196h-.743v1.204h-3.3l-.59-.786-.597.786zm-6.422-9.112L111.999 8h2.146l.703 1.618V8h2.667l.417 1.17.405-1.17h11.97v.587s.63-.587 1.662-.587l3.884.013.693 1.598V8h2.232l.614.918V8h2.252v5.197h-2.252l-.587-.922v.922h-3.277l-.329-.82h-.882l-.325.82h-2.222a2.2 2.2 0 0 1-1.459-.577v.577h-3.357l-.667-.82v.82h-12.461l-.328-.82h-.879l-.328.82h-1.533z"/><path fill="#016FD0" d="m112.437 8.642-1.672 3.89h1.088l.308-.779h1.795l.308.78h1.115l-1.672-3.89zm.62.902.547 1.36h-1.094zm2.434 2.986V8.638l1.549.006.899 2.508.879-2.514h1.536v3.89h-.972V9.664l-1.032 2.865h-.852l-1.035-2.865v2.865zm5.53 0V8.638h3.174v.869h-2.189v.666h2.136v.82h-2.14v.69h2.189v.845h-3.17Zm3.734-3.888v3.89h.972V11.15h.408l1.167 1.383h1.188l-1.281-1.433a1.185 1.185 0 0 0 1.068-1.194c0-.82-.643-1.26-1.36-1.26zm.972.87h1.111c.265 0 .461.208.461.407 0 .259-.252.408-.448.408h-1.124v-.816Zm3.94 3.018h-.992V8.638h.992v3.89Zm2.355 0h-.215c-1.039 0-1.665-.817-1.665-1.928 0-1.137.623-1.96 1.93-1.96h1.075v.922h-1.112c-.53 0-.908.415-.908 1.048 0 .753.431 1.068 1.048 1.068h.255zm2.116-3.888-1.672 3.887h1.088l.309-.78h1.794l.308.78h1.112l-1.672-3.89zm.617.902.547 1.36h-1.094zm2.434 2.986V8.638h1.238l1.578 2.444V8.64h.972v3.89h-1.197l-1.619-2.507v2.507zm-19.343 6.805v-3.89h3.174v.869h-2.189v.666h2.14v.82h-2.14v.69h2.189v.845zm15.546 0v-3.89h3.174v.869h-2.189v.666h2.129v.82h-2.129v.69h2.189v.845zm-12.249 0 1.546-1.92-1.583-1.97h1.224l.942 1.217.946-1.217h1.177l-1.562 1.943 1.549 1.944h-1.224l-.916-1.197-.892 1.197zm4.355-3.887v3.89h.998v-1.227h1.025c.866 0 1.523-.46 1.523-1.353 0-.74-.514-1.307-1.397-1.307h-2.149zm.998.879h1.078c.279 0 .481.172.481.447 0 .26-.199.448-.484.448h-1.075zm2.965-.882v3.89h.972v-1.383h.408l1.168 1.383h1.187l-1.28-1.433a1.185 1.185 0 0 0 1.068-1.194c0-.819-.644-1.26-1.36-1.26zm.976.872h1.111c.265 0 .461.21.461.408 0 .259-.252.408-.448.408h-1.124zm6.58 3.018v-.846h1.947c.289 0 .411-.156.411-.325 0-.162-.122-.328-.411-.328h-.879c-.763 0-1.19-.464-1.19-1.164 0-.624.391-1.224 1.525-1.224h1.894l-.408.875h-1.638c-.312 0-.408.166-.408.322 0 .163.119.338.358.338h.922c.852 0 1.221.485 1.221 1.118 0 .68-.412 1.237-1.267 1.237h-2.077zm3.569 0v-.846h1.947c.288 0 .411-.156.411-.325 0-.162-.123-.328-.411-.328h-.879c-.763 0-1.191-.464-1.191-1.164 0-.624.391-1.224 1.526-1.224h1.893l-.407.875h-1.639c-.312 0-.408.166-.408.322 0 .163.119.338.358.338h.922c.853 0 1.221.485 1.221 1.118 0 .68-.411 1.237-1.267 1.237h-2.076z"/></g><defs><clipPath id="a"><rect width="43.171" height="28" x=".45" fill="#fff" rx="4"/></clipPath><clipPath id="b"><path fill="#fff" d="M110.758 8h33.167v12h-33.167z"/></clipPath></defs></svg>